G04 #@! TF.GenerationSoftware,KiCad,Pcbnew,9.0.4-9.0.4-0~ubuntu22.04.1*
G04 #@! TF.CreationDate,2025-10-13T12:48:48-07:00*
G04 #@! TF.ProjectId,test_arena,74657374-5f61-4726-956e-612e6b696361,rev?*
G04 #@! TF.SameCoordinates,Original*
G04 #@! TF.FileFunction,Legend,Top*
G04 #@! TF.FilePolarity,Positive*
%FSLAX46Y46*%
G04 Gerber Fmt 4.6, Leading zero omitted, Abs format (unit mm)*
G04 Created by KiCad (PCBNEW 9.0.4-9.0.4-0~ubuntu22.04.1) date 2025-10-13 12:48:48*
%MOMM*%
%LPD*%
G01*
G04 APERTURE LIST*
G04 Aperture macros list*
%AMRoundRect*
0 Rectangle with rounded corners*
0 $1 Rounding radius*
0 $2 $3 $4 $5 $6 $7 $8 $9 X,Y pos of 4 corners*
0 Add a 4 corners polygon primitive as box body*
4,1,4,$2,$3,$4,$5,$6,$7,$8,$9,$2,$3,0*
0 Add four circle primitives for the rounded corners*
1,1,$1+$1,$2,$3*
1,1,$1+$1,$4,$5*
1,1,$1+$1,$6,$7*
1,1,$1+$1,$8,$9*
0 Add four rect primitives between the rounded corners*
20,1,$1+$1,$2,$3,$4,$5,0*
20,1,$1+$1,$4,$5,$6,$7,0*
20,1,$1+$1,$6,$7,$8,$9,0*
20,1,$1+$1,$8,$9,$2,$3,0*%
G04 Aperture macros list end*
%ADD10C,0.250000*%
%ADD11C,0.150000*%
%ADD12C,0.120000*%
%ADD13C,0.100000*%
%ADD14C,2.000000*%
%ADD15RoundRect,0.140000X-0.140000X-0.170000X0.140000X-0.170000X0.140000X0.170000X-0.140000X0.170000X0*%
%ADD16RoundRect,0.150000X-0.512500X-0.150000X0.512500X-0.150000X0.512500X0.150000X-0.512500X0.150000X0*%
%ADD17R,1.700000X1.700000*%
%ADD18C,1.700000*%
%ADD19RoundRect,0.140000X-0.170000X0.140000X-0.170000X-0.140000X0.170000X-0.140000X0.170000X0.140000X0*%
%ADD20C,3.200000*%
%ADD21R,0.700000X0.700000*%
%ADD22R,1.600000X1.600000*%
%ADD23C,1.600000*%
G04 APERTURE END LIST*
D10*
X129997806Y-56189917D02*
X129831139Y-56106584D01*
X129831139Y-56106584D02*
X129581139Y-56106584D01*
X129581139Y-56106584D02*
X129331139Y-56189917D01*
X129331139Y-56189917D02*
X129164473Y-56356584D01*
X129164473Y-56356584D02*
X129081139Y-56523251D01*
X129081139Y-56523251D02*
X128997806Y-56856584D01*
X128997806Y-56856584D02*
X128997806Y-57106584D01*
X128997806Y-57106584D02*
X129081139Y-57439917D01*
X129081139Y-57439917D02*
X129164473Y-57606584D01*
X129164473Y-57606584D02*
X129331139Y-57773251D01*
X129331139Y-57773251D02*
X129581139Y-57856584D01*
X129581139Y-57856584D02*
X129747806Y-57856584D01*
X129747806Y-57856584D02*
X129997806Y-57773251D01*
X129997806Y-57773251D02*
X130081139Y-57689917D01*
X130081139Y-57689917D02*
X130081139Y-57106584D01*
X130081139Y-57106584D02*
X129747806Y-57106584D01*
X130831139Y-57856584D02*
X130831139Y-56106584D01*
X130831139Y-56106584D02*
X131831139Y-57856584D01*
X131831139Y-57856584D02*
X131831139Y-56106584D01*
X132664472Y-57856584D02*
X132664472Y-56106584D01*
X132664472Y-56106584D02*
X133081139Y-56106584D01*
X133081139Y-56106584D02*
X133331139Y-56189917D01*
X133331139Y-56189917D02*
X133497806Y-56356584D01*
X133497806Y-56356584D02*
X133581139Y-56523251D01*
X133581139Y-56523251D02*
X133664472Y-56856584D01*
X133664472Y-56856584D02*
X133664472Y-57106584D01*
X133664472Y-57106584D02*
X133581139Y-57439917D01*
X133581139Y-57439917D02*
X133497806Y-57606584D01*
X133497806Y-57606584D02*
X133331139Y-57773251D01*
X133331139Y-57773251D02*
X133081139Y-57856584D01*
X133081139Y-57856584D02*
X132664472Y-57856584D01*
X144947883Y-84426666D02*
X143197883Y-84426666D01*
X143197883Y-84426666D02*
X143197883Y-83759999D01*
X143197883Y-83759999D02*
X143281216Y-83593333D01*
X143281216Y-83593333D02*
X143364550Y-83509999D01*
X143364550Y-83509999D02*
X143531216Y-83426666D01*
X143531216Y-83426666D02*
X143781216Y-83426666D01*
X143781216Y-83426666D02*
X143947883Y-83509999D01*
X143947883Y-83509999D02*
X144031216Y-83593333D01*
X144031216Y-83593333D02*
X144114550Y-83759999D01*
X144114550Y-83759999D02*
X144114550Y-84426666D01*
X144947883Y-81926666D02*
X144031216Y-81926666D01*
X144031216Y-81926666D02*
X143864550Y-82009999D01*
X143864550Y-82009999D02*
X143781216Y-82176666D01*
X143781216Y-82176666D02*
X143781216Y-82509999D01*
X143781216Y-82509999D02*
X143864550Y-82676666D01*
X144864550Y-81926666D02*
X144947883Y-82093333D01*
X144947883Y-82093333D02*
X144947883Y-82509999D01*
X144947883Y-82509999D02*
X144864550Y-82676666D01*
X144864550Y-82676666D02*
X144697883Y-82759999D01*
X144697883Y-82759999D02*
X144531216Y-82759999D01*
X144531216Y-82759999D02*
X144364550Y-82676666D01*
X144364550Y-82676666D02*
X144281216Y-82509999D01*
X144281216Y-82509999D02*
X144281216Y-82093333D01*
X144281216Y-82093333D02*
X144197883Y-81926666D01*
X143781216Y-81093333D02*
X144947883Y-81093333D01*
X143947883Y-81093333D02*
X143864550Y-81010000D01*
X143864550Y-81010000D02*
X143781216Y-80843333D01*
X143781216Y-80843333D02*
X143781216Y-80593333D01*
X143781216Y-80593333D02*
X143864550Y-80426666D01*
X143864550Y-80426666D02*
X144031216Y-80343333D01*
X144031216Y-80343333D02*
X144947883Y-80343333D01*
X144864550Y-78843333D02*
X144947883Y-79010000D01*
X144947883Y-79010000D02*
X144947883Y-79343333D01*
X144947883Y-79343333D02*
X144864550Y-79510000D01*
X144864550Y-79510000D02*
X144697883Y-79593333D01*
X144697883Y-79593333D02*
X144031216Y-79593333D01*
X144031216Y-79593333D02*
X143864550Y-79510000D01*
X143864550Y-79510000D02*
X143781216Y-79343333D01*
X143781216Y-79343333D02*
X143781216Y-79010000D01*
X143781216Y-79010000D02*
X143864550Y-78843333D01*
X143864550Y-78843333D02*
X144031216Y-78760000D01*
X144031216Y-78760000D02*
X144197883Y-78760000D01*
X144197883Y-78760000D02*
X144364550Y-79593333D01*
X144947883Y-77760000D02*
X144864550Y-77926667D01*
X144864550Y-77926667D02*
X144697883Y-78010000D01*
X144697883Y-78010000D02*
X143197883Y-78010000D01*
X144947883Y-74760000D02*
X144114550Y-75343333D01*
X144947883Y-75760000D02*
X143197883Y-75760000D01*
X143197883Y-75760000D02*
X143197883Y-75093333D01*
X143197883Y-75093333D02*
X143281216Y-74926667D01*
X143281216Y-74926667D02*
X143364550Y-74843333D01*
X143364550Y-74843333D02*
X143531216Y-74760000D01*
X143531216Y-74760000D02*
X143781216Y-74760000D01*
X143781216Y-74760000D02*
X143947883Y-74843333D01*
X143947883Y-74843333D02*
X144031216Y-74926667D01*
X144031216Y-74926667D02*
X144114550Y-75093333D01*
X144114550Y-75093333D02*
X144114550Y-75760000D01*
X144947883Y-74010000D02*
X143197883Y-74010000D01*
X143197883Y-74010000D02*
X143197883Y-73343333D01*
X143197883Y-73343333D02*
X143281216Y-73176667D01*
X143281216Y-73176667D02*
X143364550Y-73093333D01*
X143364550Y-73093333D02*
X143531216Y-73010000D01*
X143531216Y-73010000D02*
X143781216Y-73010000D01*
X143781216Y-73010000D02*
X143947883Y-73093333D01*
X143947883Y-73093333D02*
X144031216Y-73176667D01*
X144031216Y-73176667D02*
X144114550Y-73343333D01*
X144114550Y-73343333D02*
X144114550Y-74010000D01*
X143364550Y-72343333D02*
X143281216Y-72260000D01*
X143281216Y-72260000D02*
X143197883Y-72093333D01*
X143197883Y-72093333D02*
X143197883Y-71676667D01*
X143197883Y-71676667D02*
X143281216Y-71510000D01*
X143281216Y-71510000D02*
X143364550Y-71426667D01*
X143364550Y-71426667D02*
X143531216Y-71343333D01*
X143531216Y-71343333D02*
X143697883Y-71343333D01*
X143697883Y-71343333D02*
X143947883Y-71426667D01*
X143947883Y-71426667D02*
X144947883Y-72426667D01*
X144947883Y-72426667D02*
X144947883Y-71343333D01*
X143197883Y-70760000D02*
X143197883Y-69676666D01*
X143197883Y-69676666D02*
X143864550Y-70260000D01*
X143864550Y-70260000D02*
X143864550Y-70010000D01*
X143864550Y-70010000D02*
X143947883Y-69843333D01*
X143947883Y-69843333D02*
X144031216Y-69760000D01*
X144031216Y-69760000D02*
X144197883Y-69676666D01*
X144197883Y-69676666D02*
X144614550Y-69676666D01*
X144614550Y-69676666D02*
X144781216Y-69760000D01*
X144781216Y-69760000D02*
X144864550Y-69843333D01*
X144864550Y-69843333D02*
X144947883Y-70010000D01*
X144947883Y-70010000D02*
X144947883Y-70510000D01*
X144947883Y-70510000D02*
X144864550Y-70676666D01*
X144864550Y-70676666D02*
X144781216Y-70760000D01*
X143197883Y-68093333D02*
X143197883Y-68926666D01*
X143197883Y-68926666D02*
X144031216Y-69009999D01*
X144031216Y-69009999D02*
X143947883Y-68926666D01*
X143947883Y-68926666D02*
X143864550Y-68759999D01*
X143864550Y-68759999D02*
X143864550Y-68343333D01*
X143864550Y-68343333D02*
X143947883Y-68176666D01*
X143947883Y-68176666D02*
X144031216Y-68093333D01*
X144031216Y-68093333D02*
X144197883Y-68009999D01*
X144197883Y-68009999D02*
X144614550Y-68009999D01*
X144614550Y-68009999D02*
X144781216Y-68093333D01*
X144781216Y-68093333D02*
X144864550Y-68176666D01*
X144864550Y-68176666D02*
X144947883Y-68343333D01*
X144947883Y-68343333D02*
X144947883Y-68759999D01*
X144947883Y-68759999D02*
X144864550Y-68926666D01*
X144864550Y-68926666D02*
X144781216Y-69009999D01*
X143781216Y-66509999D02*
X144947883Y-66509999D01*
X143114550Y-66926666D02*
X144364550Y-67343332D01*
X144364550Y-67343332D02*
X144364550Y-66259999D01*
X146015285Y-86134999D02*
X146015285Y-85134999D01*
X147765285Y-85634999D02*
X146015285Y-85634999D01*
X147681952Y-83884999D02*
X147765285Y-84051666D01*
X147765285Y-84051666D02*
X147765285Y-84384999D01*
X147765285Y-84384999D02*
X147681952Y-84551666D01*
X147681952Y-84551666D02*
X147515285Y-84634999D01*
X147515285Y-84634999D02*
X146848618Y-84634999D01*
X146848618Y-84634999D02*
X146681952Y-84551666D01*
X146681952Y-84551666D02*
X146598618Y-84384999D01*
X146598618Y-84384999D02*
X146598618Y-84051666D01*
X146598618Y-84051666D02*
X146681952Y-83884999D01*
X146681952Y-83884999D02*
X146848618Y-83801666D01*
X146848618Y-83801666D02*
X147015285Y-83801666D01*
X147015285Y-83801666D02*
X147181952Y-84634999D01*
X147681952Y-83134999D02*
X147765285Y-82968333D01*
X147765285Y-82968333D02*
X147765285Y-82634999D01*
X147765285Y-82634999D02*
X147681952Y-82468333D01*
X147681952Y-82468333D02*
X147515285Y-82384999D01*
X147515285Y-82384999D02*
X147431952Y-82384999D01*
X147431952Y-82384999D02*
X147265285Y-82468333D01*
X147265285Y-82468333D02*
X147181952Y-82634999D01*
X147181952Y-82634999D02*
X147181952Y-82884999D01*
X147181952Y-82884999D02*
X147098618Y-83051666D01*
X147098618Y-83051666D02*
X146931952Y-83134999D01*
X146931952Y-83134999D02*
X146848618Y-83134999D01*
X146848618Y-83134999D02*
X146681952Y-83051666D01*
X146681952Y-83051666D02*
X146598618Y-82884999D01*
X146598618Y-82884999D02*
X146598618Y-82634999D01*
X146598618Y-82634999D02*
X146681952Y-82468333D01*
X146598618Y-81884999D02*
X146598618Y-81218332D01*
X146015285Y-81634999D02*
X147515285Y-81634999D01*
X147515285Y-81634999D02*
X147681952Y-81551666D01*
X147681952Y-81551666D02*
X147765285Y-81384999D01*
X147765285Y-81384999D02*
X147765285Y-81218332D01*
X147265285Y-79384999D02*
X147265285Y-78551666D01*
X147765285Y-79551666D02*
X146015285Y-78968333D01*
X146015285Y-78968333D02*
X147765285Y-78384999D01*
X147765285Y-77801666D02*
X146598618Y-77801666D01*
X146931952Y-77801666D02*
X146765285Y-77718333D01*
X146765285Y-77718333D02*
X146681952Y-77634999D01*
X146681952Y-77634999D02*
X146598618Y-77468333D01*
X146598618Y-77468333D02*
X146598618Y-77301666D01*
X147681952Y-76051666D02*
X147765285Y-76218333D01*
X147765285Y-76218333D02*
X147765285Y-76551666D01*
X147765285Y-76551666D02*
X147681952Y-76718333D01*
X147681952Y-76718333D02*
X147515285Y-76801666D01*
X147515285Y-76801666D02*
X146848618Y-76801666D01*
X146848618Y-76801666D02*
X146681952Y-76718333D01*
X146681952Y-76718333D02*
X146598618Y-76551666D01*
X146598618Y-76551666D02*
X146598618Y-76218333D01*
X146598618Y-76218333D02*
X146681952Y-76051666D01*
X146681952Y-76051666D02*
X146848618Y-75968333D01*
X146848618Y-75968333D02*
X147015285Y-75968333D01*
X147015285Y-75968333D02*
X147181952Y-76801666D01*
X146598618Y-75218333D02*
X147765285Y-75218333D01*
X146765285Y-75218333D02*
X146681952Y-75135000D01*
X146681952Y-75135000D02*
X146598618Y-74968333D01*
X146598618Y-74968333D02*
X146598618Y-74718333D01*
X146598618Y-74718333D02*
X146681952Y-74551666D01*
X146681952Y-74551666D02*
X146848618Y-74468333D01*
X146848618Y-74468333D02*
X147765285Y-74468333D01*
X147765285Y-72885000D02*
X146848618Y-72885000D01*
X146848618Y-72885000D02*
X146681952Y-72968333D01*
X146681952Y-72968333D02*
X146598618Y-73135000D01*
X146598618Y-73135000D02*
X146598618Y-73468333D01*
X146598618Y-73468333D02*
X146681952Y-73635000D01*
X147681952Y-72885000D02*
X147765285Y-73051667D01*
X147765285Y-73051667D02*
X147765285Y-73468333D01*
X147765285Y-73468333D02*
X147681952Y-73635000D01*
X147681952Y-73635000D02*
X147515285Y-73718333D01*
X147515285Y-73718333D02*
X147348618Y-73718333D01*
X147348618Y-73718333D02*
X147181952Y-73635000D01*
X147181952Y-73635000D02*
X147098618Y-73468333D01*
X147098618Y-73468333D02*
X147098618Y-73051667D01*
X147098618Y-73051667D02*
X147015285Y-72885000D01*
X146015285Y-70968334D02*
X147765285Y-70385001D01*
X147765285Y-70385001D02*
X146015285Y-69801667D01*
X147765285Y-68301667D02*
X147765285Y-69301667D01*
X147765285Y-68801667D02*
X146015285Y-68801667D01*
X146015285Y-68801667D02*
X146265285Y-68968334D01*
X146265285Y-68968334D02*
X146431952Y-69135001D01*
X146431952Y-69135001D02*
X146515285Y-69301667D01*
X147765285Y-65218334D02*
X146931952Y-65801667D01*
X147765285Y-66218334D02*
X146015285Y-66218334D01*
X146015285Y-66218334D02*
X146015285Y-65551667D01*
X146015285Y-65551667D02*
X146098618Y-65385001D01*
X146098618Y-65385001D02*
X146181952Y-65301667D01*
X146181952Y-65301667D02*
X146348618Y-65218334D01*
X146348618Y-65218334D02*
X146598618Y-65218334D01*
X146598618Y-65218334D02*
X146765285Y-65301667D01*
X146765285Y-65301667D02*
X146848618Y-65385001D01*
X146848618Y-65385001D02*
X146931952Y-65551667D01*
X146931952Y-65551667D02*
X146931952Y-66218334D01*
X147765285Y-63551667D02*
X147765285Y-64551667D01*
X147765285Y-64051667D02*
X146015285Y-64051667D01*
X146015285Y-64051667D02*
X146265285Y-64218334D01*
X146265285Y-64218334D02*
X146431952Y-64385001D01*
X146431952Y-64385001D02*
X146515285Y-64551667D01*
X112629917Y-93418860D02*
X112713251Y-93502193D01*
X112713251Y-93502193D02*
X112796584Y-93752193D01*
X112796584Y-93752193D02*
X112796584Y-93918860D01*
X112796584Y-93918860D02*
X112713251Y-94168860D01*
X112713251Y-94168860D02*
X112546584Y-94335527D01*
X112546584Y-94335527D02*
X112379917Y-94418860D01*
X112379917Y-94418860D02*
X112046584Y-94502193D01*
X112046584Y-94502193D02*
X111796584Y-94502193D01*
X111796584Y-94502193D02*
X111463251Y-94418860D01*
X111463251Y-94418860D02*
X111296584Y-94335527D01*
X111296584Y-94335527D02*
X111129917Y-94168860D01*
X111129917Y-94168860D02*
X111046584Y-93918860D01*
X111046584Y-93918860D02*
X111046584Y-93752193D01*
X111046584Y-93752193D02*
X111129917Y-93502193D01*
X111129917Y-93502193D02*
X111213251Y-93418860D01*
X112713251Y-92752193D02*
X112796584Y-92502193D01*
X112796584Y-92502193D02*
X112796584Y-92085527D01*
X112796584Y-92085527D02*
X112713251Y-91918860D01*
X112713251Y-91918860D02*
X112629917Y-91835527D01*
X112629917Y-91835527D02*
X112463251Y-91752193D01*
X112463251Y-91752193D02*
X112296584Y-91752193D01*
X112296584Y-91752193D02*
X112129917Y-91835527D01*
X112129917Y-91835527D02*
X112046584Y-91918860D01*
X112046584Y-91918860D02*
X111963251Y-92085527D01*
X111963251Y-92085527D02*
X111879917Y-92418860D01*
X111879917Y-92418860D02*
X111796584Y-92585527D01*
X111796584Y-92585527D02*
X111713251Y-92668860D01*
X111713251Y-92668860D02*
X111546584Y-92752193D01*
X111546584Y-92752193D02*
X111379917Y-92752193D01*
X111379917Y-92752193D02*
X111213251Y-92668860D01*
X111213251Y-92668860D02*
X111129917Y-92585527D01*
X111129917Y-92585527D02*
X111046584Y-92418860D01*
X111046584Y-92418860D02*
X111046584Y-92002193D01*
X111046584Y-92002193D02*
X111129917Y-91752193D01*
X111213251Y-91085526D02*
X111129917Y-91002193D01*
X111129917Y-91002193D02*
X111046584Y-90835526D01*
X111046584Y-90835526D02*
X111046584Y-90418860D01*
X111046584Y-90418860D02*
X111129917Y-90252193D01*
X111129917Y-90252193D02*
X111213251Y-90168860D01*
X111213251Y-90168860D02*
X111379917Y-90085526D01*
X111379917Y-90085526D02*
X111546584Y-90085526D01*
X111546584Y-90085526D02*
X111796584Y-90168860D01*
X111796584Y-90168860D02*
X112796584Y-91168860D01*
X112796584Y-91168860D02*
X112796584Y-90085526D01*
X129914473Y-53566584D02*
X129081139Y-53566584D01*
X129081139Y-53566584D02*
X128997806Y-54399917D01*
X128997806Y-54399917D02*
X129081139Y-54316584D01*
X129081139Y-54316584D02*
X129247806Y-54233251D01*
X129247806Y-54233251D02*
X129664473Y-54233251D01*
X129664473Y-54233251D02*
X129831139Y-54316584D01*
X129831139Y-54316584D02*
X129914473Y-54399917D01*
X129914473Y-54399917D02*
X129997806Y-54566584D01*
X129997806Y-54566584D02*
X129997806Y-54983251D01*
X129997806Y-54983251D02*
X129914473Y-55149917D01*
X129914473Y-55149917D02*
X129831139Y-55233251D01*
X129831139Y-55233251D02*
X129664473Y-55316584D01*
X129664473Y-55316584D02*
X129247806Y-55316584D01*
X129247806Y-55316584D02*
X129081139Y-55233251D01*
X129081139Y-55233251D02*
X128997806Y-55149917D01*
X130497806Y-53566584D02*
X131081140Y-55316584D01*
X131081140Y-55316584D02*
X131664473Y-53566584D01*
X84583333Y-53272834D02*
X85416666Y-53272834D01*
X84416666Y-53772834D02*
X85000000Y-52022834D01*
X85000000Y-52022834D02*
X85583333Y-53772834D01*
X108629917Y-93418860D02*
X108713251Y-93502193D01*
X108713251Y-93502193D02*
X108796584Y-93752193D01*
X108796584Y-93752193D02*
X108796584Y-93918860D01*
X108796584Y-93918860D02*
X108713251Y-94168860D01*
X108713251Y-94168860D02*
X108546584Y-94335527D01*
X108546584Y-94335527D02*
X108379917Y-94418860D01*
X108379917Y-94418860D02*
X108046584Y-94502193D01*
X108046584Y-94502193D02*
X107796584Y-94502193D01*
X107796584Y-94502193D02*
X107463251Y-94418860D01*
X107463251Y-94418860D02*
X107296584Y-94335527D01*
X107296584Y-94335527D02*
X107129917Y-94168860D01*
X107129917Y-94168860D02*
X107046584Y-93918860D01*
X107046584Y-93918860D02*
X107046584Y-93752193D01*
X107046584Y-93752193D02*
X107129917Y-93502193D01*
X107129917Y-93502193D02*
X107213251Y-93418860D01*
X108713251Y-92752193D02*
X108796584Y-92502193D01*
X108796584Y-92502193D02*
X108796584Y-92085527D01*
X108796584Y-92085527D02*
X108713251Y-91918860D01*
X108713251Y-91918860D02*
X108629917Y-91835527D01*
X108629917Y-91835527D02*
X108463251Y-91752193D01*
X108463251Y-91752193D02*
X108296584Y-91752193D01*
X108296584Y-91752193D02*
X108129917Y-91835527D01*
X108129917Y-91835527D02*
X108046584Y-91918860D01*
X108046584Y-91918860D02*
X107963251Y-92085527D01*
X107963251Y-92085527D02*
X107879917Y-92418860D01*
X107879917Y-92418860D02*
X107796584Y-92585527D01*
X107796584Y-92585527D02*
X107713251Y-92668860D01*
X107713251Y-92668860D02*
X107546584Y-92752193D01*
X107546584Y-92752193D02*
X107379917Y-92752193D01*
X107379917Y-92752193D02*
X107213251Y-92668860D01*
X107213251Y-92668860D02*
X107129917Y-92585527D01*
X107129917Y-92585527D02*
X107046584Y-92418860D01*
X107046584Y-92418860D02*
X107046584Y-92002193D01*
X107046584Y-92002193D02*
X107129917Y-91752193D01*
X108796584Y-90085526D02*
X108796584Y-91085526D01*
X108796584Y-90585526D02*
X107046584Y-90585526D01*
X107046584Y-90585526D02*
X107296584Y-90752193D01*
X107296584Y-90752193D02*
X107463251Y-90918860D01*
X107463251Y-90918860D02*
X107546584Y-91085526D01*
X129081139Y-95359917D02*
X129664473Y-95359917D01*
X129914473Y-96276584D02*
X129081139Y-96276584D01*
X129081139Y-96276584D02*
X129081139Y-94526584D01*
X129081139Y-94526584D02*
X129914473Y-94526584D01*
X130664472Y-96276584D02*
X130664472Y-94526584D01*
X131497805Y-96276584D02*
X131497805Y-94526584D01*
X131497805Y-94526584D02*
X132497805Y-96276584D01*
X132497805Y-96276584D02*
X132497805Y-94526584D01*
X133081138Y-94526584D02*
X134081138Y-94526584D01*
X133581138Y-96276584D02*
X133581138Y-94526584D01*
X119879917Y-94418860D02*
X119879917Y-93835527D01*
X120796584Y-93585527D02*
X120796584Y-94418860D01*
X120796584Y-94418860D02*
X119046584Y-94418860D01*
X119046584Y-94418860D02*
X119046584Y-93585527D01*
X120796584Y-92835527D02*
X119046584Y-92835527D01*
X120796584Y-92002194D02*
X119046584Y-92002194D01*
X119046584Y-92002194D02*
X120796584Y-91002194D01*
X120796584Y-91002194D02*
X119046584Y-91002194D01*
X119046584Y-90418861D02*
X119046584Y-89418861D01*
X120796584Y-89918861D02*
X119046584Y-89918861D01*
X130081139Y-85949917D02*
X129997806Y-86033251D01*
X129997806Y-86033251D02*
X129747806Y-86116584D01*
X129747806Y-86116584D02*
X129581139Y-86116584D01*
X129581139Y-86116584D02*
X129331139Y-86033251D01*
X129331139Y-86033251D02*
X129164473Y-85866584D01*
X129164473Y-85866584D02*
X129081139Y-85699917D01*
X129081139Y-85699917D02*
X128997806Y-85366584D01*
X128997806Y-85366584D02*
X128997806Y-85116584D01*
X128997806Y-85116584D02*
X129081139Y-84783251D01*
X129081139Y-84783251D02*
X129164473Y-84616584D01*
X129164473Y-84616584D02*
X129331139Y-84449917D01*
X129331139Y-84449917D02*
X129581139Y-84366584D01*
X129581139Y-84366584D02*
X129747806Y-84366584D01*
X129747806Y-84366584D02*
X129997806Y-84449917D01*
X129997806Y-84449917D02*
X130081139Y-84533251D01*
X130747806Y-86033251D02*
X130997806Y-86116584D01*
X130997806Y-86116584D02*
X131414473Y-86116584D01*
X131414473Y-86116584D02*
X131581139Y-86033251D01*
X131581139Y-86033251D02*
X131664473Y-85949917D01*
X131664473Y-85949917D02*
X131747806Y-85783251D01*
X131747806Y-85783251D02*
X131747806Y-85616584D01*
X131747806Y-85616584D02*
X131664473Y-85449917D01*
X131664473Y-85449917D02*
X131581139Y-85366584D01*
X131581139Y-85366584D02*
X131414473Y-85283251D01*
X131414473Y-85283251D02*
X131081139Y-85199917D01*
X131081139Y-85199917D02*
X130914473Y-85116584D01*
X130914473Y-85116584D02*
X130831139Y-85033251D01*
X130831139Y-85033251D02*
X130747806Y-84866584D01*
X130747806Y-84866584D02*
X130747806Y-84699917D01*
X130747806Y-84699917D02*
X130831139Y-84533251D01*
X130831139Y-84533251D02*
X130914473Y-84449917D01*
X130914473Y-84449917D02*
X131081139Y-84366584D01*
X131081139Y-84366584D02*
X131497806Y-84366584D01*
X131497806Y-84366584D02*
X131747806Y-84449917D01*
X132831140Y-84366584D02*
X132997806Y-84366584D01*
X132997806Y-84366584D02*
X133164473Y-84449917D01*
X133164473Y-84449917D02*
X133247806Y-84533251D01*
X133247806Y-84533251D02*
X133331140Y-84699917D01*
X133331140Y-84699917D02*
X133414473Y-85033251D01*
X133414473Y-85033251D02*
X133414473Y-85449917D01*
X133414473Y-85449917D02*
X133331140Y-85783251D01*
X133331140Y-85783251D02*
X133247806Y-85949917D01*
X133247806Y-85949917D02*
X133164473Y-86033251D01*
X133164473Y-86033251D02*
X132997806Y-86116584D01*
X132997806Y-86116584D02*
X132831140Y-86116584D01*
X132831140Y-86116584D02*
X132664473Y-86033251D01*
X132664473Y-86033251D02*
X132581140Y-85949917D01*
X132581140Y-85949917D02*
X132497806Y-85783251D01*
X132497806Y-85783251D02*
X132414473Y-85449917D01*
X132414473Y-85449917D02*
X132414473Y-85033251D01*
X132414473Y-85033251D02*
X132497806Y-84699917D01*
X132497806Y-84699917D02*
X132581140Y-84533251D01*
X132581140Y-84533251D02*
X132664473Y-84449917D01*
X132664473Y-84449917D02*
X132831140Y-84366584D01*
X83129917Y-93502193D02*
X83046584Y-93668860D01*
X83046584Y-93668860D02*
X83046584Y-93918860D01*
X83046584Y-93918860D02*
X83129917Y-94168860D01*
X83129917Y-94168860D02*
X83296584Y-94335527D01*
X83296584Y-94335527D02*
X83463251Y-94418860D01*
X83463251Y-94418860D02*
X83796584Y-94502193D01*
X83796584Y-94502193D02*
X84046584Y-94502193D01*
X84046584Y-94502193D02*
X84379917Y-94418860D01*
X84379917Y-94418860D02*
X84546584Y-94335527D01*
X84546584Y-94335527D02*
X84713251Y-94168860D01*
X84713251Y-94168860D02*
X84796584Y-93918860D01*
X84796584Y-93918860D02*
X84796584Y-93752193D01*
X84796584Y-93752193D02*
X84713251Y-93502193D01*
X84713251Y-93502193D02*
X84629917Y-93418860D01*
X84629917Y-93418860D02*
X84046584Y-93418860D01*
X84046584Y-93418860D02*
X84046584Y-93752193D01*
X84796584Y-92668860D02*
X83046584Y-92668860D01*
X83046584Y-92668860D02*
X84796584Y-91668860D01*
X84796584Y-91668860D02*
X83046584Y-91668860D01*
X84796584Y-90835527D02*
X83046584Y-90835527D01*
X83046584Y-90835527D02*
X83046584Y-90418860D01*
X83046584Y-90418860D02*
X83129917Y-90168860D01*
X83129917Y-90168860D02*
X83296584Y-90002194D01*
X83296584Y-90002194D02*
X83463251Y-89918860D01*
X83463251Y-89918860D02*
X83796584Y-89835527D01*
X83796584Y-89835527D02*
X84046584Y-89835527D01*
X84046584Y-89835527D02*
X84379917Y-89918860D01*
X84379917Y-89918860D02*
X84546584Y-90002194D01*
X84546584Y-90002194D02*
X84713251Y-90168860D01*
X84713251Y-90168860D02*
X84796584Y-90418860D01*
X84796584Y-90418860D02*
X84796584Y-90835527D01*
X79046584Y-93585527D02*
X79046584Y-94418860D01*
X79046584Y-94418860D02*
X79879917Y-94502193D01*
X79879917Y-94502193D02*
X79796584Y-94418860D01*
X79796584Y-94418860D02*
X79713251Y-94252193D01*
X79713251Y-94252193D02*
X79713251Y-93835527D01*
X79713251Y-93835527D02*
X79796584Y-93668860D01*
X79796584Y-93668860D02*
X79879917Y-93585527D01*
X79879917Y-93585527D02*
X80046584Y-93502193D01*
X80046584Y-93502193D02*
X80463251Y-93502193D01*
X80463251Y-93502193D02*
X80629917Y-93585527D01*
X80629917Y-93585527D02*
X80713251Y-93668860D01*
X80713251Y-93668860D02*
X80796584Y-93835527D01*
X80796584Y-93835527D02*
X80796584Y-94252193D01*
X80796584Y-94252193D02*
X80713251Y-94418860D01*
X80713251Y-94418860D02*
X80629917Y-94502193D01*
X79046584Y-93002193D02*
X80796584Y-92418860D01*
X80796584Y-92418860D02*
X79046584Y-91835526D01*
X115541666Y-53606167D02*
X115458333Y-53689501D01*
X115458333Y-53689501D02*
X115208333Y-53772834D01*
X115208333Y-53772834D02*
X115041666Y-53772834D01*
X115041666Y-53772834D02*
X114791666Y-53689501D01*
X114791666Y-53689501D02*
X114625000Y-53522834D01*
X114625000Y-53522834D02*
X114541666Y-53356167D01*
X114541666Y-53356167D02*
X114458333Y-53022834D01*
X114458333Y-53022834D02*
X114458333Y-52772834D01*
X114458333Y-52772834D02*
X114541666Y-52439501D01*
X114541666Y-52439501D02*
X114625000Y-52272834D01*
X114625000Y-52272834D02*
X114791666Y-52106167D01*
X114791666Y-52106167D02*
X115041666Y-52022834D01*
X115041666Y-52022834D02*
X115208333Y-52022834D01*
X115208333Y-52022834D02*
X115458333Y-52106167D01*
X115458333Y-52106167D02*
X115541666Y-52189501D01*
X104629917Y-93418860D02*
X104713251Y-93502193D01*
X104713251Y-93502193D02*
X104796584Y-93752193D01*
X104796584Y-93752193D02*
X104796584Y-93918860D01*
X104796584Y-93918860D02*
X104713251Y-94168860D01*
X104713251Y-94168860D02*
X104546584Y-94335527D01*
X104546584Y-94335527D02*
X104379917Y-94418860D01*
X104379917Y-94418860D02*
X104046584Y-94502193D01*
X104046584Y-94502193D02*
X103796584Y-94502193D01*
X103796584Y-94502193D02*
X103463251Y-94418860D01*
X103463251Y-94418860D02*
X103296584Y-94335527D01*
X103296584Y-94335527D02*
X103129917Y-94168860D01*
X103129917Y-94168860D02*
X103046584Y-93918860D01*
X103046584Y-93918860D02*
X103046584Y-93752193D01*
X103046584Y-93752193D02*
X103129917Y-93502193D01*
X103129917Y-93502193D02*
X103213251Y-93418860D01*
X104713251Y-92752193D02*
X104796584Y-92502193D01*
X104796584Y-92502193D02*
X104796584Y-92085527D01*
X104796584Y-92085527D02*
X104713251Y-91918860D01*
X104713251Y-91918860D02*
X104629917Y-91835527D01*
X104629917Y-91835527D02*
X104463251Y-91752193D01*
X104463251Y-91752193D02*
X104296584Y-91752193D01*
X104296584Y-91752193D02*
X104129917Y-91835527D01*
X104129917Y-91835527D02*
X104046584Y-91918860D01*
X104046584Y-91918860D02*
X103963251Y-92085527D01*
X103963251Y-92085527D02*
X103879917Y-92418860D01*
X103879917Y-92418860D02*
X103796584Y-92585527D01*
X103796584Y-92585527D02*
X103713251Y-92668860D01*
X103713251Y-92668860D02*
X103546584Y-92752193D01*
X103546584Y-92752193D02*
X103379917Y-92752193D01*
X103379917Y-92752193D02*
X103213251Y-92668860D01*
X103213251Y-92668860D02*
X103129917Y-92585527D01*
X103129917Y-92585527D02*
X103046584Y-92418860D01*
X103046584Y-92418860D02*
X103046584Y-92002193D01*
X103046584Y-92002193D02*
X103129917Y-91752193D01*
X103046584Y-90668860D02*
X103046584Y-90502193D01*
X103046584Y-90502193D02*
X103129917Y-90335526D01*
X103129917Y-90335526D02*
X103213251Y-90252193D01*
X103213251Y-90252193D02*
X103379917Y-90168860D01*
X103379917Y-90168860D02*
X103713251Y-90085526D01*
X103713251Y-90085526D02*
X104129917Y-90085526D01*
X104129917Y-90085526D02*
X104463251Y-90168860D01*
X104463251Y-90168860D02*
X104629917Y-90252193D01*
X104629917Y-90252193D02*
X104713251Y-90335526D01*
X104713251Y-90335526D02*
X104796584Y-90502193D01*
X104796584Y-90502193D02*
X104796584Y-90668860D01*
X104796584Y-90668860D02*
X104713251Y-90835526D01*
X104713251Y-90835526D02*
X104629917Y-90918860D01*
X104629917Y-90918860D02*
X104463251Y-91002193D01*
X104463251Y-91002193D02*
X104129917Y-91085526D01*
X104129917Y-91085526D02*
X103713251Y-91085526D01*
X103713251Y-91085526D02*
X103379917Y-91002193D01*
X103379917Y-91002193D02*
X103213251Y-90918860D01*
X103213251Y-90918860D02*
X103129917Y-90835526D01*
X103129917Y-90835526D02*
X103046584Y-90668860D01*
X129081139Y-62936584D02*
X129081139Y-61186584D01*
X129081139Y-61186584D02*
X129664473Y-62436584D01*
X129664473Y-62436584D02*
X130247806Y-61186584D01*
X130247806Y-61186584D02*
X130247806Y-62936584D01*
X131414473Y-61186584D02*
X131747806Y-61186584D01*
X131747806Y-61186584D02*
X131914473Y-61269917D01*
X131914473Y-61269917D02*
X132081139Y-61436584D01*
X132081139Y-61436584D02*
X132164473Y-61769917D01*
X132164473Y-61769917D02*
X132164473Y-62353251D01*
X132164473Y-62353251D02*
X132081139Y-62686584D01*
X132081139Y-62686584D02*
X131914473Y-62853251D01*
X131914473Y-62853251D02*
X131747806Y-62936584D01*
X131747806Y-62936584D02*
X131414473Y-62936584D01*
X131414473Y-62936584D02*
X131247806Y-62853251D01*
X131247806Y-62853251D02*
X131081139Y-62686584D01*
X131081139Y-62686584D02*
X130997806Y-62353251D01*
X130997806Y-62353251D02*
X130997806Y-61769917D01*
X130997806Y-61769917D02*
X131081139Y-61436584D01*
X131081139Y-61436584D02*
X131247806Y-61269917D01*
X131247806Y-61269917D02*
X131414473Y-61186584D01*
X132831139Y-62853251D02*
X133081139Y-62936584D01*
X133081139Y-62936584D02*
X133497806Y-62936584D01*
X133497806Y-62936584D02*
X133664472Y-62853251D01*
X133664472Y-62853251D02*
X133747806Y-62769917D01*
X133747806Y-62769917D02*
X133831139Y-62603251D01*
X133831139Y-62603251D02*
X133831139Y-62436584D01*
X133831139Y-62436584D02*
X133747806Y-62269917D01*
X133747806Y-62269917D02*
X133664472Y-62186584D01*
X133664472Y-62186584D02*
X133497806Y-62103251D01*
X133497806Y-62103251D02*
X133164472Y-62019917D01*
X133164472Y-62019917D02*
X132997806Y-61936584D01*
X132997806Y-61936584D02*
X132914472Y-61853251D01*
X132914472Y-61853251D02*
X132831139Y-61686584D01*
X132831139Y-61686584D02*
X132831139Y-61519917D01*
X132831139Y-61519917D02*
X132914472Y-61353251D01*
X132914472Y-61353251D02*
X132997806Y-61269917D01*
X132997806Y-61269917D02*
X133164472Y-61186584D01*
X133164472Y-61186584D02*
X133581139Y-61186584D01*
X133581139Y-61186584D02*
X133831139Y-61269917D01*
X134581139Y-62936584D02*
X134581139Y-61186584D01*
X116629917Y-93418860D02*
X116713251Y-93502193D01*
X116713251Y-93502193D02*
X116796584Y-93752193D01*
X116796584Y-93752193D02*
X116796584Y-93918860D01*
X116796584Y-93918860D02*
X116713251Y-94168860D01*
X116713251Y-94168860D02*
X116546584Y-94335527D01*
X116546584Y-94335527D02*
X116379917Y-94418860D01*
X116379917Y-94418860D02*
X116046584Y-94502193D01*
X116046584Y-94502193D02*
X115796584Y-94502193D01*
X115796584Y-94502193D02*
X115463251Y-94418860D01*
X115463251Y-94418860D02*
X115296584Y-94335527D01*
X115296584Y-94335527D02*
X115129917Y-94168860D01*
X115129917Y-94168860D02*
X115046584Y-93918860D01*
X115046584Y-93918860D02*
X115046584Y-93752193D01*
X115046584Y-93752193D02*
X115129917Y-93502193D01*
X115129917Y-93502193D02*
X115213251Y-93418860D01*
X116713251Y-92752193D02*
X116796584Y-92502193D01*
X116796584Y-92502193D02*
X116796584Y-92085527D01*
X116796584Y-92085527D02*
X116713251Y-91918860D01*
X116713251Y-91918860D02*
X116629917Y-91835527D01*
X116629917Y-91835527D02*
X116463251Y-91752193D01*
X116463251Y-91752193D02*
X116296584Y-91752193D01*
X116296584Y-91752193D02*
X116129917Y-91835527D01*
X116129917Y-91835527D02*
X116046584Y-91918860D01*
X116046584Y-91918860D02*
X115963251Y-92085527D01*
X115963251Y-92085527D02*
X115879917Y-92418860D01*
X115879917Y-92418860D02*
X115796584Y-92585527D01*
X115796584Y-92585527D02*
X115713251Y-92668860D01*
X115713251Y-92668860D02*
X115546584Y-92752193D01*
X115546584Y-92752193D02*
X115379917Y-92752193D01*
X115379917Y-92752193D02*
X115213251Y-92668860D01*
X115213251Y-92668860D02*
X115129917Y-92585527D01*
X115129917Y-92585527D02*
X115046584Y-92418860D01*
X115046584Y-92418860D02*
X115046584Y-92002193D01*
X115046584Y-92002193D02*
X115129917Y-91752193D01*
X115046584Y-91168860D02*
X115046584Y-90085526D01*
X115046584Y-90085526D02*
X115713251Y-90668860D01*
X115713251Y-90668860D02*
X115713251Y-90418860D01*
X115713251Y-90418860D02*
X115796584Y-90252193D01*
X115796584Y-90252193D02*
X115879917Y-90168860D01*
X115879917Y-90168860D02*
X116046584Y-90085526D01*
X116046584Y-90085526D02*
X116463251Y-90085526D01*
X116463251Y-90085526D02*
X116629917Y-90168860D01*
X116629917Y-90168860D02*
X116713251Y-90252193D01*
X116713251Y-90252193D02*
X116796584Y-90418860D01*
X116796584Y-90418860D02*
X116796584Y-90918860D01*
X116796584Y-90918860D02*
X116713251Y-91085526D01*
X116713251Y-91085526D02*
X116629917Y-91168860D01*
X130081139Y-93569917D02*
X129997806Y-93653251D01*
X129997806Y-93653251D02*
X129747806Y-93736584D01*
X129747806Y-93736584D02*
X129581139Y-93736584D01*
X129581139Y-93736584D02*
X129331139Y-93653251D01*
X129331139Y-93653251D02*
X129164473Y-93486584D01*
X129164473Y-93486584D02*
X129081139Y-93319917D01*
X129081139Y-93319917D02*
X128997806Y-92986584D01*
X128997806Y-92986584D02*
X128997806Y-92736584D01*
X128997806Y-92736584D02*
X129081139Y-92403251D01*
X129081139Y-92403251D02*
X129164473Y-92236584D01*
X129164473Y-92236584D02*
X129331139Y-92069917D01*
X129331139Y-92069917D02*
X129581139Y-91986584D01*
X129581139Y-91986584D02*
X129747806Y-91986584D01*
X129747806Y-91986584D02*
X129997806Y-92069917D01*
X129997806Y-92069917D02*
X130081139Y-92153251D01*
X130747806Y-93653251D02*
X130997806Y-93736584D01*
X130997806Y-93736584D02*
X131414473Y-93736584D01*
X131414473Y-93736584D02*
X131581139Y-93653251D01*
X131581139Y-93653251D02*
X131664473Y-93569917D01*
X131664473Y-93569917D02*
X131747806Y-93403251D01*
X131747806Y-93403251D02*
X131747806Y-93236584D01*
X131747806Y-93236584D02*
X131664473Y-93069917D01*
X131664473Y-93069917D02*
X131581139Y-92986584D01*
X131581139Y-92986584D02*
X131414473Y-92903251D01*
X131414473Y-92903251D02*
X131081139Y-92819917D01*
X131081139Y-92819917D02*
X130914473Y-92736584D01*
X130914473Y-92736584D02*
X130831139Y-92653251D01*
X130831139Y-92653251D02*
X130747806Y-92486584D01*
X130747806Y-92486584D02*
X130747806Y-92319917D01*
X130747806Y-92319917D02*
X130831139Y-92153251D01*
X130831139Y-92153251D02*
X130914473Y-92069917D01*
X130914473Y-92069917D02*
X131081139Y-91986584D01*
X131081139Y-91986584D02*
X131497806Y-91986584D01*
X131497806Y-91986584D02*
X131747806Y-92069917D01*
X132331140Y-91986584D02*
X133414473Y-91986584D01*
X133414473Y-91986584D02*
X132831140Y-92653251D01*
X132831140Y-92653251D02*
X133081140Y-92653251D01*
X133081140Y-92653251D02*
X133247806Y-92736584D01*
X133247806Y-92736584D02*
X133331140Y-92819917D01*
X133331140Y-92819917D02*
X133414473Y-92986584D01*
X133414473Y-92986584D02*
X133414473Y-93403251D01*
X133414473Y-93403251D02*
X133331140Y-93569917D01*
X133331140Y-93569917D02*
X133247806Y-93653251D01*
X133247806Y-93653251D02*
X133081140Y-93736584D01*
X133081140Y-93736584D02*
X132581140Y-93736584D01*
X132581140Y-93736584D02*
X132414473Y-93653251D01*
X132414473Y-93653251D02*
X132331140Y-93569917D01*
X96796584Y-94418860D02*
X95046584Y-94418860D01*
X95046584Y-94418860D02*
X96296584Y-93835527D01*
X96296584Y-93835527D02*
X95046584Y-93252193D01*
X95046584Y-93252193D02*
X96796584Y-93252193D01*
X96796584Y-92418860D02*
X95046584Y-92418860D01*
X96713251Y-91668860D02*
X96796584Y-91418860D01*
X96796584Y-91418860D02*
X96796584Y-91002194D01*
X96796584Y-91002194D02*
X96713251Y-90835527D01*
X96713251Y-90835527D02*
X96629917Y-90752194D01*
X96629917Y-90752194D02*
X96463251Y-90668860D01*
X96463251Y-90668860D02*
X96296584Y-90668860D01*
X96296584Y-90668860D02*
X96129917Y-90752194D01*
X96129917Y-90752194D02*
X96046584Y-90835527D01*
X96046584Y-90835527D02*
X95963251Y-91002194D01*
X95963251Y-91002194D02*
X95879917Y-91335527D01*
X95879917Y-91335527D02*
X95796584Y-91502194D01*
X95796584Y-91502194D02*
X95713251Y-91585527D01*
X95713251Y-91585527D02*
X95546584Y-91668860D01*
X95546584Y-91668860D02*
X95379917Y-91668860D01*
X95379917Y-91668860D02*
X95213251Y-91585527D01*
X95213251Y-91585527D02*
X95129917Y-91502194D01*
X95129917Y-91502194D02*
X95046584Y-91335527D01*
X95046584Y-91335527D02*
X95046584Y-90918860D01*
X95046584Y-90918860D02*
X95129917Y-90668860D01*
X95046584Y-89585527D02*
X95046584Y-89252193D01*
X95046584Y-89252193D02*
X95129917Y-89085527D01*
X95129917Y-89085527D02*
X95296584Y-88918860D01*
X95296584Y-88918860D02*
X95629917Y-88835527D01*
X95629917Y-88835527D02*
X96213251Y-88835527D01*
X96213251Y-88835527D02*
X96546584Y-88918860D01*
X96546584Y-88918860D02*
X96713251Y-89085527D01*
X96713251Y-89085527D02*
X96796584Y-89252193D01*
X96796584Y-89252193D02*
X96796584Y-89585527D01*
X96796584Y-89585527D02*
X96713251Y-89752193D01*
X96713251Y-89752193D02*
X96546584Y-89918860D01*
X96546584Y-89918860D02*
X96213251Y-90002193D01*
X96213251Y-90002193D02*
X95629917Y-90002193D01*
X95629917Y-90002193D02*
X95296584Y-89918860D01*
X95296584Y-89918860D02*
X95129917Y-89752193D01*
X95129917Y-89752193D02*
X95046584Y-89585527D01*
X129081139Y-65476584D02*
X129081139Y-63726584D01*
X129081139Y-63726584D02*
X129664473Y-64976584D01*
X129664473Y-64976584D02*
X130247806Y-63726584D01*
X130247806Y-63726584D02*
X130247806Y-65476584D01*
X131081139Y-65476584D02*
X131081139Y-63726584D01*
X131831139Y-65393251D02*
X132081139Y-65476584D01*
X132081139Y-65476584D02*
X132497806Y-65476584D01*
X132497806Y-65476584D02*
X132664472Y-65393251D01*
X132664472Y-65393251D02*
X132747806Y-65309917D01*
X132747806Y-65309917D02*
X132831139Y-65143251D01*
X132831139Y-65143251D02*
X132831139Y-64976584D01*
X132831139Y-64976584D02*
X132747806Y-64809917D01*
X132747806Y-64809917D02*
X132664472Y-64726584D01*
X132664472Y-64726584D02*
X132497806Y-64643251D01*
X132497806Y-64643251D02*
X132164472Y-64559917D01*
X132164472Y-64559917D02*
X131997806Y-64476584D01*
X131997806Y-64476584D02*
X131914472Y-64393251D01*
X131914472Y-64393251D02*
X131831139Y-64226584D01*
X131831139Y-64226584D02*
X131831139Y-64059917D01*
X131831139Y-64059917D02*
X131914472Y-63893251D01*
X131914472Y-63893251D02*
X131997806Y-63809917D01*
X131997806Y-63809917D02*
X132164472Y-63726584D01*
X132164472Y-63726584D02*
X132581139Y-63726584D01*
X132581139Y-63726584D02*
X132831139Y-63809917D01*
X133914473Y-63726584D02*
X134247806Y-63726584D01*
X134247806Y-63726584D02*
X134414473Y-63809917D01*
X134414473Y-63809917D02*
X134581139Y-63976584D01*
X134581139Y-63976584D02*
X134664473Y-64309917D01*
X134664473Y-64309917D02*
X134664473Y-64893251D01*
X134664473Y-64893251D02*
X134581139Y-65226584D01*
X134581139Y-65226584D02*
X134414473Y-65393251D01*
X134414473Y-65393251D02*
X134247806Y-65476584D01*
X134247806Y-65476584D02*
X133914473Y-65476584D01*
X133914473Y-65476584D02*
X133747806Y-65393251D01*
X133747806Y-65393251D02*
X133581139Y-65226584D01*
X133581139Y-65226584D02*
X133497806Y-64893251D01*
X133497806Y-64893251D02*
X133497806Y-64309917D01*
X133497806Y-64309917D02*
X133581139Y-63976584D01*
X133581139Y-63976584D02*
X133747806Y-63809917D01*
X133747806Y-63809917D02*
X133914473Y-63726584D01*
X130081139Y-88489917D02*
X129997806Y-88573251D01*
X129997806Y-88573251D02*
X129747806Y-88656584D01*
X129747806Y-88656584D02*
X129581139Y-88656584D01*
X129581139Y-88656584D02*
X129331139Y-88573251D01*
X129331139Y-88573251D02*
X129164473Y-88406584D01*
X129164473Y-88406584D02*
X129081139Y-88239917D01*
X129081139Y-88239917D02*
X128997806Y-87906584D01*
X128997806Y-87906584D02*
X128997806Y-87656584D01*
X128997806Y-87656584D02*
X129081139Y-87323251D01*
X129081139Y-87323251D02*
X129164473Y-87156584D01*
X129164473Y-87156584D02*
X129331139Y-86989917D01*
X129331139Y-86989917D02*
X129581139Y-86906584D01*
X129581139Y-86906584D02*
X129747806Y-86906584D01*
X129747806Y-86906584D02*
X129997806Y-86989917D01*
X129997806Y-86989917D02*
X130081139Y-87073251D01*
X130747806Y-88573251D02*
X130997806Y-88656584D01*
X130997806Y-88656584D02*
X131414473Y-88656584D01*
X131414473Y-88656584D02*
X131581139Y-88573251D01*
X131581139Y-88573251D02*
X131664473Y-88489917D01*
X131664473Y-88489917D02*
X131747806Y-88323251D01*
X131747806Y-88323251D02*
X131747806Y-88156584D01*
X131747806Y-88156584D02*
X131664473Y-87989917D01*
X131664473Y-87989917D02*
X131581139Y-87906584D01*
X131581139Y-87906584D02*
X131414473Y-87823251D01*
X131414473Y-87823251D02*
X131081139Y-87739917D01*
X131081139Y-87739917D02*
X130914473Y-87656584D01*
X130914473Y-87656584D02*
X130831139Y-87573251D01*
X130831139Y-87573251D02*
X130747806Y-87406584D01*
X130747806Y-87406584D02*
X130747806Y-87239917D01*
X130747806Y-87239917D02*
X130831139Y-87073251D01*
X130831139Y-87073251D02*
X130914473Y-86989917D01*
X130914473Y-86989917D02*
X131081139Y-86906584D01*
X131081139Y-86906584D02*
X131497806Y-86906584D01*
X131497806Y-86906584D02*
X131747806Y-86989917D01*
X133414473Y-88656584D02*
X132414473Y-88656584D01*
X132914473Y-88656584D02*
X132914473Y-86906584D01*
X132914473Y-86906584D02*
X132747806Y-87156584D01*
X132747806Y-87156584D02*
X132581140Y-87323251D01*
X132581140Y-87323251D02*
X132414473Y-87406584D01*
X88713251Y-94502193D02*
X88796584Y-94252193D01*
X88796584Y-94252193D02*
X88796584Y-93835527D01*
X88796584Y-93835527D02*
X88713251Y-93668860D01*
X88713251Y-93668860D02*
X88629917Y-93585527D01*
X88629917Y-93585527D02*
X88463251Y-93502193D01*
X88463251Y-93502193D02*
X88296584Y-93502193D01*
X88296584Y-93502193D02*
X88129917Y-93585527D01*
X88129917Y-93585527D02*
X88046584Y-93668860D01*
X88046584Y-93668860D02*
X87963251Y-93835527D01*
X87963251Y-93835527D02*
X87879917Y-94168860D01*
X87879917Y-94168860D02*
X87796584Y-94335527D01*
X87796584Y-94335527D02*
X87713251Y-94418860D01*
X87713251Y-94418860D02*
X87546584Y-94502193D01*
X87546584Y-94502193D02*
X87379917Y-94502193D01*
X87379917Y-94502193D02*
X87213251Y-94418860D01*
X87213251Y-94418860D02*
X87129917Y-94335527D01*
X87129917Y-94335527D02*
X87046584Y-94168860D01*
X87046584Y-94168860D02*
X87046584Y-93752193D01*
X87046584Y-93752193D02*
X87129917Y-93502193D01*
X88629917Y-91752193D02*
X88713251Y-91835526D01*
X88713251Y-91835526D02*
X88796584Y-92085526D01*
X88796584Y-92085526D02*
X88796584Y-92252193D01*
X88796584Y-92252193D02*
X88713251Y-92502193D01*
X88713251Y-92502193D02*
X88546584Y-92668860D01*
X88546584Y-92668860D02*
X88379917Y-92752193D01*
X88379917Y-92752193D02*
X88046584Y-92835526D01*
X88046584Y-92835526D02*
X87796584Y-92835526D01*
X87796584Y-92835526D02*
X87463251Y-92752193D01*
X87463251Y-92752193D02*
X87296584Y-92668860D01*
X87296584Y-92668860D02*
X87129917Y-92502193D01*
X87129917Y-92502193D02*
X87046584Y-92252193D01*
X87046584Y-92252193D02*
X87046584Y-92085526D01*
X87046584Y-92085526D02*
X87129917Y-91835526D01*
X87129917Y-91835526D02*
X87213251Y-91752193D01*
X88796584Y-91002193D02*
X87046584Y-91002193D01*
X88796584Y-90002193D02*
X87796584Y-90752193D01*
X87046584Y-90002193D02*
X88046584Y-91002193D01*
X92796584Y-94418860D02*
X91046584Y-94418860D01*
X91046584Y-94418860D02*
X92296584Y-93835527D01*
X92296584Y-93835527D02*
X91046584Y-93252193D01*
X91046584Y-93252193D02*
X92796584Y-93252193D01*
X91046584Y-92085527D02*
X91046584Y-91752193D01*
X91046584Y-91752193D02*
X91129917Y-91585527D01*
X91129917Y-91585527D02*
X91296584Y-91418860D01*
X91296584Y-91418860D02*
X91629917Y-91335527D01*
X91629917Y-91335527D02*
X92213251Y-91335527D01*
X92213251Y-91335527D02*
X92546584Y-91418860D01*
X92546584Y-91418860D02*
X92713251Y-91585527D01*
X92713251Y-91585527D02*
X92796584Y-91752193D01*
X92796584Y-91752193D02*
X92796584Y-92085527D01*
X92796584Y-92085527D02*
X92713251Y-92252193D01*
X92713251Y-92252193D02*
X92546584Y-92418860D01*
X92546584Y-92418860D02*
X92213251Y-92502193D01*
X92213251Y-92502193D02*
X91629917Y-92502193D01*
X91629917Y-92502193D02*
X91296584Y-92418860D01*
X91296584Y-92418860D02*
X91129917Y-92252193D01*
X91129917Y-92252193D02*
X91046584Y-92085527D01*
X92713251Y-90668860D02*
X92796584Y-90418860D01*
X92796584Y-90418860D02*
X92796584Y-90002194D01*
X92796584Y-90002194D02*
X92713251Y-89835527D01*
X92713251Y-89835527D02*
X92629917Y-89752194D01*
X92629917Y-89752194D02*
X92463251Y-89668860D01*
X92463251Y-89668860D02*
X92296584Y-89668860D01*
X92296584Y-89668860D02*
X92129917Y-89752194D01*
X92129917Y-89752194D02*
X92046584Y-89835527D01*
X92046584Y-89835527D02*
X91963251Y-90002194D01*
X91963251Y-90002194D02*
X91879917Y-90335527D01*
X91879917Y-90335527D02*
X91796584Y-90502194D01*
X91796584Y-90502194D02*
X91713251Y-90585527D01*
X91713251Y-90585527D02*
X91546584Y-90668860D01*
X91546584Y-90668860D02*
X91379917Y-90668860D01*
X91379917Y-90668860D02*
X91213251Y-90585527D01*
X91213251Y-90585527D02*
X91129917Y-90502194D01*
X91129917Y-90502194D02*
X91046584Y-90335527D01*
X91046584Y-90335527D02*
X91046584Y-89918860D01*
X91046584Y-89918860D02*
X91129917Y-89668860D01*
X92796584Y-88918860D02*
X91046584Y-88918860D01*
X130081139Y-91029917D02*
X129997806Y-91113251D01*
X129997806Y-91113251D02*
X129747806Y-91196584D01*
X129747806Y-91196584D02*
X129581139Y-91196584D01*
X129581139Y-91196584D02*
X129331139Y-91113251D01*
X129331139Y-91113251D02*
X129164473Y-90946584D01*
X129164473Y-90946584D02*
X129081139Y-90779917D01*
X129081139Y-90779917D02*
X128997806Y-90446584D01*
X128997806Y-90446584D02*
X128997806Y-90196584D01*
X128997806Y-90196584D02*
X129081139Y-89863251D01*
X129081139Y-89863251D02*
X129164473Y-89696584D01*
X129164473Y-89696584D02*
X129331139Y-89529917D01*
X129331139Y-89529917D02*
X129581139Y-89446584D01*
X129581139Y-89446584D02*
X129747806Y-89446584D01*
X129747806Y-89446584D02*
X129997806Y-89529917D01*
X129997806Y-89529917D02*
X130081139Y-89613251D01*
X130747806Y-91113251D02*
X130997806Y-91196584D01*
X130997806Y-91196584D02*
X131414473Y-91196584D01*
X131414473Y-91196584D02*
X131581139Y-91113251D01*
X131581139Y-91113251D02*
X131664473Y-91029917D01*
X131664473Y-91029917D02*
X131747806Y-90863251D01*
X131747806Y-90863251D02*
X131747806Y-90696584D01*
X131747806Y-90696584D02*
X131664473Y-90529917D01*
X131664473Y-90529917D02*
X131581139Y-90446584D01*
X131581139Y-90446584D02*
X131414473Y-90363251D01*
X131414473Y-90363251D02*
X131081139Y-90279917D01*
X131081139Y-90279917D02*
X130914473Y-90196584D01*
X130914473Y-90196584D02*
X130831139Y-90113251D01*
X130831139Y-90113251D02*
X130747806Y-89946584D01*
X130747806Y-89946584D02*
X130747806Y-89779917D01*
X130747806Y-89779917D02*
X130831139Y-89613251D01*
X130831139Y-89613251D02*
X130914473Y-89529917D01*
X130914473Y-89529917D02*
X131081139Y-89446584D01*
X131081139Y-89446584D02*
X131497806Y-89446584D01*
X131497806Y-89446584D02*
X131747806Y-89529917D01*
X132414473Y-89613251D02*
X132497806Y-89529917D01*
X132497806Y-89529917D02*
X132664473Y-89446584D01*
X132664473Y-89446584D02*
X133081140Y-89446584D01*
X133081140Y-89446584D02*
X133247806Y-89529917D01*
X133247806Y-89529917D02*
X133331140Y-89613251D01*
X133331140Y-89613251D02*
X133414473Y-89779917D01*
X133414473Y-89779917D02*
X133414473Y-89946584D01*
X133414473Y-89946584D02*
X133331140Y-90196584D01*
X133331140Y-90196584D02*
X132331140Y-91196584D01*
X132331140Y-91196584D02*
X133414473Y-91196584D01*
X128997806Y-60313251D02*
X129247806Y-60396584D01*
X129247806Y-60396584D02*
X129664473Y-60396584D01*
X129664473Y-60396584D02*
X129831139Y-60313251D01*
X129831139Y-60313251D02*
X129914473Y-60229917D01*
X129914473Y-60229917D02*
X129997806Y-60063251D01*
X129997806Y-60063251D02*
X129997806Y-59896584D01*
X129997806Y-59896584D02*
X129914473Y-59729917D01*
X129914473Y-59729917D02*
X129831139Y-59646584D01*
X129831139Y-59646584D02*
X129664473Y-59563251D01*
X129664473Y-59563251D02*
X129331139Y-59479917D01*
X129331139Y-59479917D02*
X129164473Y-59396584D01*
X129164473Y-59396584D02*
X129081139Y-59313251D01*
X129081139Y-59313251D02*
X128997806Y-59146584D01*
X128997806Y-59146584D02*
X128997806Y-58979917D01*
X128997806Y-58979917D02*
X129081139Y-58813251D01*
X129081139Y-58813251D02*
X129164473Y-58729917D01*
X129164473Y-58729917D02*
X129331139Y-58646584D01*
X129331139Y-58646584D02*
X129747806Y-58646584D01*
X129747806Y-58646584D02*
X129997806Y-58729917D01*
X131747806Y-60229917D02*
X131664473Y-60313251D01*
X131664473Y-60313251D02*
X131414473Y-60396584D01*
X131414473Y-60396584D02*
X131247806Y-60396584D01*
X131247806Y-60396584D02*
X130997806Y-60313251D01*
X130997806Y-60313251D02*
X130831140Y-60146584D01*
X130831140Y-60146584D02*
X130747806Y-59979917D01*
X130747806Y-59979917D02*
X130664473Y-59646584D01*
X130664473Y-59646584D02*
X130664473Y-59396584D01*
X130664473Y-59396584D02*
X130747806Y-59063251D01*
X130747806Y-59063251D02*
X130831140Y-58896584D01*
X130831140Y-58896584D02*
X130997806Y-58729917D01*
X130997806Y-58729917D02*
X131247806Y-58646584D01*
X131247806Y-58646584D02*
X131414473Y-58646584D01*
X131414473Y-58646584D02*
X131664473Y-58729917D01*
X131664473Y-58729917D02*
X131747806Y-58813251D01*
X132497806Y-60396584D02*
X132497806Y-58646584D01*
X133497806Y-60396584D02*
X132747806Y-59396584D01*
X133497806Y-58646584D02*
X132497806Y-59646584D01*
X100125000Y-52856167D02*
X100375000Y-52939501D01*
X100375000Y-52939501D02*
X100458333Y-53022834D01*
X100458333Y-53022834D02*
X100541666Y-53189501D01*
X100541666Y-53189501D02*
X100541666Y-53439501D01*
X100541666Y-53439501D02*
X100458333Y-53606167D01*
X100458333Y-53606167D02*
X100375000Y-53689501D01*
X100375000Y-53689501D02*
X100208333Y-53772834D01*
X100208333Y-53772834D02*
X99541666Y-53772834D01*
X99541666Y-53772834D02*
X99541666Y-52022834D01*
X99541666Y-52022834D02*
X100125000Y-52022834D01*
X100125000Y-52022834D02*
X100291666Y-52106167D01*
X100291666Y-52106167D02*
X100375000Y-52189501D01*
X100375000Y-52189501D02*
X100458333Y-52356167D01*
X100458333Y-52356167D02*
X100458333Y-52522834D01*
X100458333Y-52522834D02*
X100375000Y-52689501D01*
X100375000Y-52689501D02*
X100291666Y-52772834D01*
X100291666Y-52772834D02*
X100125000Y-52856167D01*
X100125000Y-52856167D02*
X99541666Y-52856167D01*
D11*
X74940595Y-54544819D02*
X74940595Y-55354342D01*
X74940595Y-55354342D02*
X74988214Y-55449580D01*
X74988214Y-55449580D02*
X75035833Y-55497200D01*
X75035833Y-55497200D02*
X75131071Y-55544819D01*
X75131071Y-55544819D02*
X75321547Y-55544819D01*
X75321547Y-55544819D02*
X75416785Y-55497200D01*
X75416785Y-55497200D02*
X75464404Y-55449580D01*
X75464404Y-55449580D02*
X75512023Y-55354342D01*
X75512023Y-55354342D02*
X75512023Y-54544819D01*
X75940595Y-54640057D02*
X75988214Y-54592438D01*
X75988214Y-54592438D02*
X76083452Y-54544819D01*
X76083452Y-54544819D02*
X76321547Y-54544819D01*
X76321547Y-54544819D02*
X76416785Y-54592438D01*
X76416785Y-54592438D02*
X76464404Y-54640057D01*
X76464404Y-54640057D02*
X76512023Y-54735295D01*
X76512023Y-54735295D02*
X76512023Y-54830533D01*
X76512023Y-54830533D02*
X76464404Y-54973390D01*
X76464404Y-54973390D02*
X75892976Y-55544819D01*
X75892976Y-55544819D02*
X76512023Y-55544819D01*
X137166666Y-51594819D02*
X137166666Y-52309104D01*
X137166666Y-52309104D02*
X137119047Y-52451961D01*
X137119047Y-52451961D02*
X137023809Y-52547200D01*
X137023809Y-52547200D02*
X136880952Y-52594819D01*
X136880952Y-52594819D02*
X136785714Y-52594819D01*
X138166666Y-52594819D02*
X137595238Y-52594819D01*
X137880952Y-52594819D02*
X137880952Y-51594819D01*
X137880952Y-51594819D02*
X137785714Y-51737676D01*
X137785714Y-51737676D02*
X137690476Y-51832914D01*
X137690476Y-51832914D02*
X137595238Y-51880533D01*
X80238095Y-64294819D02*
X80238095Y-65104342D01*
X80238095Y-65104342D02*
X80285714Y-65199580D01*
X80285714Y-65199580D02*
X80333333Y-65247200D01*
X80333333Y-65247200D02*
X80428571Y-65294819D01*
X80428571Y-65294819D02*
X80619047Y-65294819D01*
X80619047Y-65294819D02*
X80714285Y-65247200D01*
X80714285Y-65247200D02*
X80761904Y-65199580D01*
X80761904Y-65199580D02*
X80809523Y-65104342D01*
X80809523Y-65104342D02*
X80809523Y-64294819D01*
X81809523Y-65294819D02*
X81238095Y-65294819D01*
X81523809Y-65294819D02*
X81523809Y-64294819D01*
X81523809Y-64294819D02*
X81428571Y-64437676D01*
X81428571Y-64437676D02*
X81333333Y-64532914D01*
X81333333Y-64532914D02*
X81238095Y-64580533D01*
X102010952Y-75454819D02*
X102010952Y-74454819D01*
X102010952Y-74454819D02*
X102344285Y-75169104D01*
X102344285Y-75169104D02*
X102677618Y-74454819D01*
X102677618Y-74454819D02*
X102677618Y-75454819D01*
X103153809Y-75454819D02*
X103153809Y-74788152D01*
X103153809Y-74454819D02*
X103106190Y-74502438D01*
X103106190Y-74502438D02*
X103153809Y-74550057D01*
X103153809Y-74550057D02*
X103201428Y-74502438D01*
X103201428Y-74502438D02*
X103153809Y-74454819D01*
X103153809Y-74454819D02*
X103153809Y-74550057D01*
X104058570Y-75407200D02*
X103963332Y-75454819D01*
X103963332Y-75454819D02*
X103772856Y-75454819D01*
X103772856Y-75454819D02*
X103677618Y-75407200D01*
X103677618Y-75407200D02*
X103629999Y-75359580D01*
X103629999Y-75359580D02*
X103582380Y-75264342D01*
X103582380Y-75264342D02*
X103582380Y-74978628D01*
X103582380Y-74978628D02*
X103629999Y-74883390D01*
X103629999Y-74883390D02*
X103677618Y-74835771D01*
X103677618Y-74835771D02*
X103772856Y-74788152D01*
X103772856Y-74788152D02*
X103963332Y-74788152D01*
X103963332Y-74788152D02*
X104058570Y-74835771D01*
X104487142Y-75454819D02*
X104487142Y-74788152D01*
X104487142Y-74978628D02*
X104534761Y-74883390D01*
X104534761Y-74883390D02*
X104582380Y-74835771D01*
X104582380Y-74835771D02*
X104677618Y-74788152D01*
X104677618Y-74788152D02*
X104772856Y-74788152D01*
X105249047Y-75454819D02*
X105153809Y-75407200D01*
X105153809Y-75407200D02*
X105106190Y-75359580D01*
X105106190Y-75359580D02*
X105058571Y-75264342D01*
X105058571Y-75264342D02*
X105058571Y-74978628D01*
X105058571Y-74978628D02*
X105106190Y-74883390D01*
X105106190Y-74883390D02*
X105153809Y-74835771D01*
X105153809Y-74835771D02*
X105249047Y-74788152D01*
X105249047Y-74788152D02*
X105391904Y-74788152D01*
X105391904Y-74788152D02*
X105487142Y-74835771D01*
X105487142Y-74835771D02*
X105534761Y-74883390D01*
X105534761Y-74883390D02*
X105582380Y-74978628D01*
X105582380Y-74978628D02*
X105582380Y-75264342D01*
X105582380Y-75264342D02*
X105534761Y-75359580D01*
X105534761Y-75359580D02*
X105487142Y-75407200D01*
X105487142Y-75407200D02*
X105391904Y-75454819D01*
X105391904Y-75454819D02*
X105249047Y-75454819D01*
X106725238Y-75407200D02*
X106868095Y-75454819D01*
X106868095Y-75454819D02*
X107106190Y-75454819D01*
X107106190Y-75454819D02*
X107201428Y-75407200D01*
X107201428Y-75407200D02*
X107249047Y-75359580D01*
X107249047Y-75359580D02*
X107296666Y-75264342D01*
X107296666Y-75264342D02*
X107296666Y-75169104D01*
X107296666Y-75169104D02*
X107249047Y-75073866D01*
X107249047Y-75073866D02*
X107201428Y-75026247D01*
X107201428Y-75026247D02*
X107106190Y-74978628D01*
X107106190Y-74978628D02*
X106915714Y-74931009D01*
X106915714Y-74931009D02*
X106820476Y-74883390D01*
X106820476Y-74883390D02*
X106772857Y-74835771D01*
X106772857Y-74835771D02*
X106725238Y-74740533D01*
X106725238Y-74740533D02*
X106725238Y-74645295D01*
X106725238Y-74645295D02*
X106772857Y-74550057D01*
X106772857Y-74550057D02*
X106820476Y-74502438D01*
X106820476Y-74502438D02*
X106915714Y-74454819D01*
X106915714Y-74454819D02*
X107153809Y-74454819D01*
X107153809Y-74454819D02*
X107296666Y-74502438D01*
X107725238Y-75454819D02*
X107725238Y-74454819D01*
X107725238Y-74454819D02*
X107963333Y-74454819D01*
X107963333Y-74454819D02*
X108106190Y-74502438D01*
X108106190Y-74502438D02*
X108201428Y-74597676D01*
X108201428Y-74597676D02*
X108249047Y-74692914D01*
X108249047Y-74692914D02*
X108296666Y-74883390D01*
X108296666Y-74883390D02*
X108296666Y-75026247D01*
X108296666Y-75026247D02*
X108249047Y-75216723D01*
X108249047Y-75216723D02*
X108201428Y-75311961D01*
X108201428Y-75311961D02*
X108106190Y-75407200D01*
X108106190Y-75407200D02*
X107963333Y-75454819D01*
X107963333Y-75454819D02*
X107725238Y-75454819D01*
X59224676Y-76944019D02*
X59224676Y-77753542D01*
X59224676Y-77753542D02*
X59272295Y-77848780D01*
X59272295Y-77848780D02*
X59319914Y-77896400D01*
X59319914Y-77896400D02*
X59415152Y-77944019D01*
X59415152Y-77944019D02*
X59605628Y-77944019D01*
X59605628Y-77944019D02*
X59700866Y-77896400D01*
X59700866Y-77896400D02*
X59748485Y-77848780D01*
X59748485Y-77848780D02*
X59796104Y-77753542D01*
X59796104Y-77753542D02*
X59796104Y-76944019D01*
X60224676Y-77896400D02*
X60367533Y-77944019D01*
X60367533Y-77944019D02*
X60605628Y-77944019D01*
X60605628Y-77944019D02*
X60700866Y-77896400D01*
X60700866Y-77896400D02*
X60748485Y-77848780D01*
X60748485Y-77848780D02*
X60796104Y-77753542D01*
X60796104Y-77753542D02*
X60796104Y-77658304D01*
X60796104Y-77658304D02*
X60748485Y-77563066D01*
X60748485Y-77563066D02*
X60700866Y-77515447D01*
X60700866Y-77515447D02*
X60605628Y-77467828D01*
X60605628Y-77467828D02*
X60415152Y-77420209D01*
X60415152Y-77420209D02*
X60319914Y-77372590D01*
X60319914Y-77372590D02*
X60272295Y-77324971D01*
X60272295Y-77324971D02*
X60224676Y-77229733D01*
X60224676Y-77229733D02*
X60224676Y-77134495D01*
X60224676Y-77134495D02*
X60272295Y-77039257D01*
X60272295Y-77039257D02*
X60319914Y-76991638D01*
X60319914Y-76991638D02*
X60415152Y-76944019D01*
X60415152Y-76944019D02*
X60653247Y-76944019D01*
X60653247Y-76944019D02*
X60796104Y-76991638D01*
X61558009Y-77420209D02*
X61700866Y-77467828D01*
X61700866Y-77467828D02*
X61748485Y-77515447D01*
X61748485Y-77515447D02*
X61796104Y-77610685D01*
X61796104Y-77610685D02*
X61796104Y-77753542D01*
X61796104Y-77753542D02*
X61748485Y-77848780D01*
X61748485Y-77848780D02*
X61700866Y-77896400D01*
X61700866Y-77896400D02*
X61605628Y-77944019D01*
X61605628Y-77944019D02*
X61224676Y-77944019D01*
X61224676Y-77944019D02*
X61224676Y-76944019D01*
X61224676Y-76944019D02*
X61558009Y-76944019D01*
X61558009Y-76944019D02*
X61653247Y-76991638D01*
X61653247Y-76991638D02*
X61700866Y-77039257D01*
X61700866Y-77039257D02*
X61748485Y-77134495D01*
X61748485Y-77134495D02*
X61748485Y-77229733D01*
X61748485Y-77229733D02*
X61700866Y-77324971D01*
X61700866Y-77324971D02*
X61653247Y-77372590D01*
X61653247Y-77372590D02*
X61558009Y-77420209D01*
X61558009Y-77420209D02*
X61224676Y-77420209D01*
X62986581Y-77944019D02*
X62986581Y-76944019D01*
X62986581Y-77420209D02*
X63558009Y-77420209D01*
X63558009Y-77944019D02*
X63558009Y-76944019D01*
X64177057Y-77944019D02*
X64081819Y-77896400D01*
X64081819Y-77896400D02*
X64034200Y-77848780D01*
X64034200Y-77848780D02*
X63986581Y-77753542D01*
X63986581Y-77753542D02*
X63986581Y-77467828D01*
X63986581Y-77467828D02*
X64034200Y-77372590D01*
X64034200Y-77372590D02*
X64081819Y-77324971D01*
X64081819Y-77324971D02*
X64177057Y-77277352D01*
X64177057Y-77277352D02*
X64319914Y-77277352D01*
X64319914Y-77277352D02*
X64415152Y-77324971D01*
X64415152Y-77324971D02*
X64462771Y-77372590D01*
X64462771Y-77372590D02*
X64510390Y-77467828D01*
X64510390Y-77467828D02*
X64510390Y-77753542D01*
X64510390Y-77753542D02*
X64462771Y-77848780D01*
X64462771Y-77848780D02*
X64415152Y-77896400D01*
X64415152Y-77896400D02*
X64319914Y-77944019D01*
X64319914Y-77944019D02*
X64177057Y-77944019D01*
X64891343Y-77896400D02*
X64986581Y-77944019D01*
X64986581Y-77944019D02*
X65177057Y-77944019D01*
X65177057Y-77944019D02*
X65272295Y-77896400D01*
X65272295Y-77896400D02*
X65319914Y-77801161D01*
X65319914Y-77801161D02*
X65319914Y-77753542D01*
X65319914Y-77753542D02*
X65272295Y-77658304D01*
X65272295Y-77658304D02*
X65177057Y-77610685D01*
X65177057Y-77610685D02*
X65034200Y-77610685D01*
X65034200Y-77610685D02*
X64938962Y-77563066D01*
X64938962Y-77563066D02*
X64891343Y-77467828D01*
X64891343Y-77467828D02*
X64891343Y-77420209D01*
X64891343Y-77420209D02*
X64938962Y-77324971D01*
X64938962Y-77324971D02*
X65034200Y-77277352D01*
X65034200Y-77277352D02*
X65177057Y-77277352D01*
X65177057Y-77277352D02*
X65272295Y-77324971D01*
X65605629Y-77277352D02*
X65986581Y-77277352D01*
X65748486Y-76944019D02*
X65748486Y-77801161D01*
X65748486Y-77801161D02*
X65796105Y-77896400D01*
X65796105Y-77896400D02*
X65891343Y-77944019D01*
X65891343Y-77944019D02*
X65986581Y-77944019D01*
X80092295Y-78523809D02*
X79292295Y-78523809D01*
X79292295Y-78523809D02*
X79863723Y-78257143D01*
X79863723Y-78257143D02*
X79292295Y-77990476D01*
X79292295Y-77990476D02*
X80092295Y-77990476D01*
X80092295Y-77609523D02*
X79292295Y-77609523D01*
X80092295Y-77228571D02*
X79292295Y-77228571D01*
X79292295Y-77228571D02*
X79863723Y-76961905D01*
X79863723Y-76961905D02*
X79292295Y-76695238D01*
X79292295Y-76695238D02*
X80092295Y-76695238D01*
X79292295Y-76390476D02*
X80092295Y-75857142D01*
X79292295Y-75857142D02*
X80092295Y-76390476D01*
X80092295Y-75095237D02*
X79711342Y-75361904D01*
X80092295Y-75552380D02*
X79292295Y-75552380D01*
X79292295Y-75552380D02*
X79292295Y-75247618D01*
X79292295Y-75247618D02*
X79330390Y-75171428D01*
X79330390Y-75171428D02*
X79368485Y-75133333D01*
X79368485Y-75133333D02*
X79444676Y-75095237D01*
X79444676Y-75095237D02*
X79558961Y-75095237D01*
X79558961Y-75095237D02*
X79635152Y-75133333D01*
X79635152Y-75133333D02*
X79673247Y-75171428D01*
X79673247Y-75171428D02*
X79711342Y-75247618D01*
X79711342Y-75247618D02*
X79711342Y-75552380D01*
X79292295Y-74866666D02*
X79292295Y-74409523D01*
X80092295Y-74638095D02*
X79292295Y-74638095D01*
X80092295Y-73723809D02*
X80092295Y-74180952D01*
X80092295Y-73952380D02*
X79292295Y-73952380D01*
X79292295Y-73952380D02*
X79406580Y-74028571D01*
X79406580Y-74028571D02*
X79482771Y-74104761D01*
X79482771Y-74104761D02*
X79520866Y-74180952D01*
X79292295Y-73228570D02*
X79292295Y-73152380D01*
X79292295Y-73152380D02*
X79330390Y-73076189D01*
X79330390Y-73076189D02*
X79368485Y-73038094D01*
X79368485Y-73038094D02*
X79444676Y-72999999D01*
X79444676Y-72999999D02*
X79597057Y-72961904D01*
X79597057Y-72961904D02*
X79787533Y-72961904D01*
X79787533Y-72961904D02*
X79939914Y-72999999D01*
X79939914Y-72999999D02*
X80016104Y-73038094D01*
X80016104Y-73038094D02*
X80054200Y-73076189D01*
X80054200Y-73076189D02*
X80092295Y-73152380D01*
X80092295Y-73152380D02*
X80092295Y-73228570D01*
X80092295Y-73228570D02*
X80054200Y-73304761D01*
X80054200Y-73304761D02*
X80016104Y-73342856D01*
X80016104Y-73342856D02*
X79939914Y-73380951D01*
X79939914Y-73380951D02*
X79787533Y-73419047D01*
X79787533Y-73419047D02*
X79597057Y-73419047D01*
X79597057Y-73419047D02*
X79444676Y-73380951D01*
X79444676Y-73380951D02*
X79368485Y-73342856D01*
X79368485Y-73342856D02*
X79330390Y-73304761D01*
X79330390Y-73304761D02*
X79292295Y-73228570D01*
X79292295Y-72276189D02*
X79292295Y-72428570D01*
X79292295Y-72428570D02*
X79330390Y-72504761D01*
X79330390Y-72504761D02*
X79368485Y-72542856D01*
X79368485Y-72542856D02*
X79482771Y-72619046D01*
X79482771Y-72619046D02*
X79635152Y-72657142D01*
X79635152Y-72657142D02*
X79939914Y-72657142D01*
X79939914Y-72657142D02*
X80016104Y-72619046D01*
X80016104Y-72619046D02*
X80054200Y-72580951D01*
X80054200Y-72580951D02*
X80092295Y-72504761D01*
X80092295Y-72504761D02*
X80092295Y-72352380D01*
X80092295Y-72352380D02*
X80054200Y-72276189D01*
X80054200Y-72276189D02*
X80016104Y-72238094D01*
X80016104Y-72238094D02*
X79939914Y-72199999D01*
X79939914Y-72199999D02*
X79749438Y-72199999D01*
X79749438Y-72199999D02*
X79673247Y-72238094D01*
X79673247Y-72238094D02*
X79635152Y-72276189D01*
X79635152Y-72276189D02*
X79597057Y-72352380D01*
X79597057Y-72352380D02*
X79597057Y-72504761D01*
X79597057Y-72504761D02*
X79635152Y-72580951D01*
X79635152Y-72580951D02*
X79673247Y-72619046D01*
X79673247Y-72619046D02*
X79749438Y-72657142D01*
X79368485Y-71895237D02*
X79330390Y-71857141D01*
X79330390Y-71857141D02*
X79292295Y-71780951D01*
X79292295Y-71780951D02*
X79292295Y-71590475D01*
X79292295Y-71590475D02*
X79330390Y-71514284D01*
X79330390Y-71514284D02*
X79368485Y-71476189D01*
X79368485Y-71476189D02*
X79444676Y-71438094D01*
X79444676Y-71438094D02*
X79520866Y-71438094D01*
X79520866Y-71438094D02*
X79635152Y-71476189D01*
X79635152Y-71476189D02*
X80092295Y-71933332D01*
X80092295Y-71933332D02*
X80092295Y-71438094D01*
X78822295Y-76400951D02*
X78022295Y-76400951D01*
X78022295Y-76400951D02*
X78022295Y-76210475D01*
X78022295Y-76210475D02*
X78060390Y-76096189D01*
X78060390Y-76096189D02*
X78136580Y-76019999D01*
X78136580Y-76019999D02*
X78212771Y-75981904D01*
X78212771Y-75981904D02*
X78365152Y-75943808D01*
X78365152Y-75943808D02*
X78479438Y-75943808D01*
X78479438Y-75943808D02*
X78631819Y-75981904D01*
X78631819Y-75981904D02*
X78708009Y-76019999D01*
X78708009Y-76019999D02*
X78784200Y-76096189D01*
X78784200Y-76096189D02*
X78822295Y-76210475D01*
X78822295Y-76210475D02*
X78822295Y-76400951D01*
X78022295Y-75715237D02*
X78822295Y-75448570D01*
X78822295Y-75448570D02*
X78022295Y-75181904D01*
X78022295Y-74686666D02*
X78593723Y-74686666D01*
X78593723Y-74686666D02*
X78708009Y-74724761D01*
X78708009Y-74724761D02*
X78784200Y-74800952D01*
X78784200Y-74800952D02*
X78822295Y-74915237D01*
X78822295Y-74915237D02*
X78822295Y-74991428D01*
X78022295Y-73962856D02*
X78022295Y-74115237D01*
X78022295Y-74115237D02*
X78060390Y-74191428D01*
X78060390Y-74191428D02*
X78098485Y-74229523D01*
X78098485Y-74229523D02*
X78212771Y-74305713D01*
X78212771Y-74305713D02*
X78365152Y-74343809D01*
X78365152Y-74343809D02*
X78669914Y-74343809D01*
X78669914Y-74343809D02*
X78746104Y-74305713D01*
X78746104Y-74305713D02*
X78784200Y-74267618D01*
X78784200Y-74267618D02*
X78822295Y-74191428D01*
X78822295Y-74191428D02*
X78822295Y-74039047D01*
X78822295Y-74039047D02*
X78784200Y-73962856D01*
X78784200Y-73962856D02*
X78746104Y-73924761D01*
X78746104Y-73924761D02*
X78669914Y-73886666D01*
X78669914Y-73886666D02*
X78479438Y-73886666D01*
X78479438Y-73886666D02*
X78403247Y-73924761D01*
X78403247Y-73924761D02*
X78365152Y-73962856D01*
X78365152Y-73962856D02*
X78327057Y-74039047D01*
X78327057Y-74039047D02*
X78327057Y-74191428D01*
X78327057Y-74191428D02*
X78365152Y-74267618D01*
X78365152Y-74267618D02*
X78403247Y-74305713D01*
X78403247Y-74305713D02*
X78479438Y-74343809D01*
X78593723Y-73581904D02*
X78593723Y-73200951D01*
X78822295Y-73658094D02*
X78022295Y-73391427D01*
X78022295Y-73391427D02*
X78822295Y-73124761D01*
X53784819Y-76261904D02*
X54594342Y-76261904D01*
X54594342Y-76261904D02*
X54689580Y-76214285D01*
X54689580Y-76214285D02*
X54737200Y-76166666D01*
X54737200Y-76166666D02*
X54784819Y-76071428D01*
X54784819Y-76071428D02*
X54784819Y-75880952D01*
X54784819Y-75880952D02*
X54737200Y-75785714D01*
X54737200Y-75785714D02*
X54689580Y-75738095D01*
X54689580Y-75738095D02*
X54594342Y-75690476D01*
X54594342Y-75690476D02*
X53784819Y-75690476D01*
X54737200Y-75261904D02*
X54784819Y-75119047D01*
X54784819Y-75119047D02*
X54784819Y-74880952D01*
X54784819Y-74880952D02*
X54737200Y-74785714D01*
X54737200Y-74785714D02*
X54689580Y-74738095D01*
X54689580Y-74738095D02*
X54594342Y-74690476D01*
X54594342Y-74690476D02*
X54499104Y-74690476D01*
X54499104Y-74690476D02*
X54403866Y-74738095D01*
X54403866Y-74738095D02*
X54356247Y-74785714D01*
X54356247Y-74785714D02*
X54308628Y-74880952D01*
X54308628Y-74880952D02*
X54261009Y-75071428D01*
X54261009Y-75071428D02*
X54213390Y-75166666D01*
X54213390Y-75166666D02*
X54165771Y-75214285D01*
X54165771Y-75214285D02*
X54070533Y-75261904D01*
X54070533Y-75261904D02*
X53975295Y-75261904D01*
X53975295Y-75261904D02*
X53880057Y-75214285D01*
X53880057Y-75214285D02*
X53832438Y-75166666D01*
X53832438Y-75166666D02*
X53784819Y-75071428D01*
X53784819Y-75071428D02*
X53784819Y-74833333D01*
X53784819Y-74833333D02*
X53832438Y-74690476D01*
X54261009Y-73928571D02*
X54308628Y-73785714D01*
X54308628Y-73785714D02*
X54356247Y-73738095D01*
X54356247Y-73738095D02*
X54451485Y-73690476D01*
X54451485Y-73690476D02*
X54594342Y-73690476D01*
X54594342Y-73690476D02*
X54689580Y-73738095D01*
X54689580Y-73738095D02*
X54737200Y-73785714D01*
X54737200Y-73785714D02*
X54784819Y-73880952D01*
X54784819Y-73880952D02*
X54784819Y-74261904D01*
X54784819Y-74261904D02*
X53784819Y-74261904D01*
X53784819Y-74261904D02*
X53784819Y-73928571D01*
X53784819Y-73928571D02*
X53832438Y-73833333D01*
X53832438Y-73833333D02*
X53880057Y-73785714D01*
X53880057Y-73785714D02*
X53975295Y-73738095D01*
X53975295Y-73738095D02*
X54070533Y-73738095D01*
X54070533Y-73738095D02*
X54165771Y-73785714D01*
X54165771Y-73785714D02*
X54213390Y-73833333D01*
X54213390Y-73833333D02*
X54261009Y-73928571D01*
X54261009Y-73928571D02*
X54261009Y-74261904D01*
X137166666Y-82394819D02*
X137166666Y-83109104D01*
X137166666Y-83109104D02*
X137119047Y-83251961D01*
X137119047Y-83251961D02*
X137023809Y-83347200D01*
X137023809Y-83347200D02*
X136880952Y-83394819D01*
X136880952Y-83394819D02*
X136785714Y-83394819D01*
X137595238Y-82490057D02*
X137642857Y-82442438D01*
X137642857Y-82442438D02*
X137738095Y-82394819D01*
X137738095Y-82394819D02*
X137976190Y-82394819D01*
X137976190Y-82394819D02*
X138071428Y-82442438D01*
X138071428Y-82442438D02*
X138119047Y-82490057D01*
X138119047Y-82490057D02*
X138166666Y-82585295D01*
X138166666Y-82585295D02*
X138166666Y-82680533D01*
X138166666Y-82680533D02*
X138119047Y-82823390D01*
X138119047Y-82823390D02*
X137547619Y-83394819D01*
X137547619Y-83394819D02*
X138166666Y-83394819D01*
D12*
G04 #@! TO.C,TP6*
X105200000Y-97000000D02*
G75*
G02*
X102800000Y-97000000I-1200000J0D01*
G01*
X102800000Y-97000000D02*
G75*
G02*
X105200000Y-97000000I1200000J0D01*
G01*
G04 #@! TO.C,C3*
X114892164Y-54880000D02*
X115107836Y-54880000D01*
X114892164Y-55600000D02*
X115107836Y-55600000D01*
G04 #@! TO.C,TP9*
X117200000Y-97000000D02*
G75*
G02*
X114800000Y-97000000I-1200000J0D01*
G01*
X114800000Y-97000000D02*
G75*
G02*
X117200000Y-97000000I1200000J0D01*
G01*
G04 #@! TO.C,TP2*
X85200000Y-97000000D02*
G75*
G02*
X82800000Y-97000000I-1200000J0D01*
G01*
X82800000Y-97000000D02*
G75*
G02*
X85200000Y-97000000I1200000J0D01*
G01*
G04 #@! TO.C,U2*
X74792500Y-55930000D02*
X76612500Y-55930000D01*
X74792500Y-55980000D02*
X74792500Y-55930000D01*
X74792500Y-59050000D02*
X74792500Y-59000000D01*
X76612500Y-55930000D02*
X76612500Y-55980000D01*
X76612500Y-57100000D02*
X76612500Y-57880000D01*
X76612500Y-59000000D02*
X76612500Y-59050000D01*
X76612500Y-59050000D02*
X74792500Y-59050000D01*
X74252500Y-55980000D02*
X74012500Y-55650000D01*
X74492500Y-55650000D01*
X74252500Y-55980000D01*
G36*
X74252500Y-55980000D02*
G01*
X74012500Y-55650000D01*
X74492500Y-55650000D01*
X74252500Y-55980000D01*
G37*
G04 #@! TO.C,TP1*
X81200000Y-97000000D02*
G75*
G02*
X78800000Y-97000000I-1200000J0D01*
G01*
X78800000Y-97000000D02*
G75*
G02*
X81200000Y-97000000I1200000J0D01*
G01*
G04 #@! TO.C,TP10*
X121200000Y-97000000D02*
G75*
G02*
X118800000Y-97000000I-1200000J0D01*
G01*
X118800000Y-97000000D02*
G75*
G02*
X121200000Y-97000000I1200000J0D01*
G01*
G04 #@! TO.C,J1*
X136120000Y-53140000D02*
X137500000Y-53140000D01*
X136120000Y-54520000D02*
X136120000Y-53140000D01*
X136120000Y-55790000D02*
X136120000Y-66060000D01*
X136120000Y-55790000D02*
X138880000Y-55790000D01*
X136120000Y-66060000D02*
X138880000Y-66060000D01*
X138880000Y-55790000D02*
X138880000Y-66060000D01*
G04 #@! TO.C,C4*
X78090000Y-56912164D02*
X78090000Y-57127836D01*
X78810000Y-56912164D02*
X78810000Y-57127836D01*
G04 #@! TO.C,TP4*
X93200000Y-97000000D02*
G75*
G02*
X90800000Y-97000000I-1200000J0D01*
G01*
X90800000Y-97000000D02*
G75*
G02*
X93200000Y-97000000I1200000J0D01*
G01*
G04 #@! TO.C,TP7*
X109200000Y-97000000D02*
G75*
G02*
X106800000Y-97000000I-1200000J0D01*
G01*
X106800000Y-97000000D02*
G75*
G02*
X109200000Y-97000000I1200000J0D01*
G01*
G04 #@! TO.C,D2*
X98900000Y-55885000D02*
X101200000Y-55885000D01*
X98900000Y-58785000D02*
X98900000Y-55885000D01*
X98900000Y-58785000D02*
X99200000Y-59085000D01*
X101200000Y-59085000D02*
X99200000Y-59085000D01*
X101200000Y-59085000D02*
X101200000Y-55885000D01*
G04 #@! TO.C,C2*
X99892164Y-54850000D02*
X100107836Y-54850000D01*
X99892164Y-55570000D02*
X100107836Y-55570000D01*
G04 #@! TO.C,TP8*
X113200000Y-97000000D02*
G75*
G02*
X110800000Y-97000000I-1200000J0D01*
G01*
X110800000Y-97000000D02*
G75*
G02*
X113200000Y-97000000I1200000J0D01*
G01*
D11*
G04 #@! TO.C,U1*
X49250000Y-71190000D02*
X50520000Y-71190000D01*
X49250000Y-78810000D02*
X49250000Y-71190000D01*
X50520000Y-66110000D02*
X111480000Y-66110000D01*
X50520000Y-78810000D02*
X49250000Y-78810000D01*
X50520000Y-83890000D02*
X50520000Y-66110000D01*
X55600000Y-71190000D02*
X50520000Y-71190000D01*
X55600000Y-78810000D02*
X50520000Y-78810000D01*
X55600000Y-78810000D02*
X55600000Y-71190000D01*
X56819200Y-78299200D02*
X59359200Y-78299200D01*
X56819200Y-78299200D02*
X69519200Y-78299200D01*
X56819200Y-80839200D02*
X56819200Y-78299200D01*
X59359200Y-78299200D02*
X59359200Y-80839200D01*
X69519200Y-78299200D02*
X69519200Y-80839200D01*
X69519200Y-80839200D02*
X56819200Y-80839200D01*
X73380000Y-68650000D02*
X73380000Y-81350000D01*
X73380000Y-81350000D02*
X86080000Y-81350000D01*
X86080000Y-68650000D02*
X73380000Y-68650000D01*
X86080000Y-81350000D02*
X86080000Y-68650000D01*
X91160000Y-73730000D02*
X94970000Y-73730000D01*
X91160000Y-76270000D02*
X91160000Y-73730000D01*
X94970000Y-73730000D02*
X94970000Y-76270000D01*
X94970000Y-76270000D02*
X91160000Y-76270000D01*
X98780000Y-68650000D02*
X98780000Y-81350000D01*
X98780000Y-81350000D02*
X111480000Y-81350000D01*
X110210000Y-69920000D02*
X110210000Y-80080000D01*
X110210000Y-80080000D02*
X111480000Y-80080000D01*
X111480000Y-66110000D02*
X111480000Y-83890000D01*
X111480000Y-68650000D02*
X98780000Y-68650000D01*
X111480000Y-69920000D02*
X110210000Y-69920000D01*
X111480000Y-83890000D02*
X50520000Y-83890000D01*
X93963026Y-75000000D02*
G75*
G02*
X92166974Y-75000000I-898026J0D01*
G01*
X92166974Y-75000000D02*
G75*
G02*
X93963026Y-75000000I898026J0D01*
G01*
D13*
X81911000Y-74312000D02*
X81657000Y-74566000D01*
X81403000Y-74185000D01*
X81657000Y-73931000D01*
X81911000Y-74312000D01*
G36*
X81911000Y-74312000D02*
G01*
X81657000Y-74566000D01*
X81403000Y-74185000D01*
X81657000Y-73931000D01*
X81911000Y-74312000D01*
G37*
X82292000Y-74820000D02*
X82038000Y-75074000D01*
X81784000Y-74693000D01*
X82038000Y-74439000D01*
X82292000Y-74820000D01*
G36*
X82292000Y-74820000D02*
G01*
X82038000Y-75074000D01*
X81784000Y-74693000D01*
X82038000Y-74439000D01*
X82292000Y-74820000D01*
G37*
X82673000Y-74439000D02*
X82419000Y-74693000D01*
X82165000Y-74312000D01*
X82419000Y-74058000D01*
X82673000Y-74439000D01*
G36*
X82673000Y-74439000D02*
G01*
X82419000Y-74693000D01*
X82165000Y-74312000D01*
X82419000Y-74058000D01*
X82673000Y-74439000D01*
G37*
X82673000Y-75328000D02*
X82419000Y-75582000D01*
X82165000Y-75201000D01*
X82419000Y-74947000D01*
X82673000Y-75328000D01*
G36*
X82673000Y-75328000D02*
G01*
X82419000Y-75582000D01*
X82165000Y-75201000D01*
X82419000Y-74947000D01*
X82673000Y-75328000D01*
G37*
X83054000Y-74947000D02*
X82800000Y-75201000D01*
X82546000Y-74820000D01*
X82800000Y-74566000D01*
X83054000Y-74947000D01*
G36*
X83054000Y-74947000D02*
G01*
X82800000Y-75201000D01*
X82546000Y-74820000D01*
X82800000Y-74566000D01*
X83054000Y-74947000D01*
G37*
X83435000Y-75455000D02*
X83181000Y-75709000D01*
X82927000Y-75328000D01*
X83181000Y-75074000D01*
X83435000Y-75455000D01*
G36*
X83435000Y-75455000D02*
G01*
X83181000Y-75709000D01*
X82927000Y-75328000D01*
X83181000Y-75074000D01*
X83435000Y-75455000D01*
G37*
X83816000Y-75074000D02*
X83562000Y-75328000D01*
X83308000Y-74947000D01*
X83562000Y-74693000D01*
X83816000Y-75074000D01*
G36*
X83816000Y-75074000D02*
G01*
X83562000Y-75328000D01*
X83308000Y-74947000D01*
X83562000Y-74693000D01*
X83816000Y-75074000D01*
G37*
X84197000Y-74693000D02*
X83943000Y-74947000D01*
X83689000Y-74566000D01*
X83943000Y-74312000D01*
X84197000Y-74693000D01*
G36*
X84197000Y-74693000D02*
G01*
X83943000Y-74947000D01*
X83689000Y-74566000D01*
X83943000Y-74312000D01*
X84197000Y-74693000D01*
G37*
D12*
G04 #@! TO.C,D1*
X83850000Y-55885000D02*
X86150000Y-55885000D01*
X83850000Y-58785000D02*
X83850000Y-55885000D01*
X83850000Y-58785000D02*
X84150000Y-59085000D01*
X86150000Y-59085000D02*
X84150000Y-59085000D01*
X86150000Y-59085000D02*
X86150000Y-55885000D01*
G04 #@! TO.C,D3*
X113850000Y-55885000D02*
X116150000Y-55885000D01*
X113850000Y-58785000D02*
X113850000Y-55885000D01*
X113850000Y-58785000D02*
X114150000Y-59085000D01*
X116150000Y-59085000D02*
X114150000Y-59085000D01*
X116150000Y-59085000D02*
X116150000Y-55885000D01*
G04 #@! TO.C,C1*
X84892164Y-54900000D02*
X85107836Y-54900000D01*
X84892164Y-55620000D02*
X85107836Y-55620000D01*
G04 #@! TO.C,TP5*
X97200000Y-97000000D02*
G75*
G02*
X94800000Y-97000000I-1200000J0D01*
G01*
X94800000Y-97000000D02*
G75*
G02*
X97200000Y-97000000I1200000J0D01*
G01*
G04 #@! TO.C,J2*
X136120000Y-83940000D02*
X137500000Y-83940000D01*
X136120000Y-85320000D02*
X136120000Y-83940000D01*
X136120000Y-86590000D02*
X136120000Y-96860000D01*
X136120000Y-86590000D02*
X138880000Y-86590000D01*
X136120000Y-96860000D02*
X138880000Y-96860000D01*
X138880000Y-86590000D02*
X138880000Y-96860000D01*
G04 #@! TO.C,TP3*
X89200000Y-97000000D02*
G75*
G02*
X86800000Y-97000000I-1200000J0D01*
G01*
X86800000Y-97000000D02*
G75*
G02*
X89200000Y-97000000I1200000J0D01*
G01*
G04 #@! TD*
%LPC*%
D14*
G04 #@! TO.C,TP6*
X104000000Y-97000000D03*
G04 #@! TD*
D15*
G04 #@! TO.C,C3*
X114520000Y-55240000D03*
X115480000Y-55240000D03*
G04 #@! TD*
D14*
G04 #@! TO.C,TP9*
X116000000Y-97000000D03*
G04 #@! TD*
G04 #@! TO.C,TP2*
X84000000Y-97000000D03*
G04 #@! TD*
D16*
G04 #@! TO.C,U2*
X74565000Y-56540000D03*
X74565000Y-57490000D03*
X74565000Y-58440000D03*
X76840000Y-58440000D03*
X76840000Y-56540000D03*
G04 #@! TD*
D14*
G04 #@! TO.C,TP1*
X80000000Y-97000000D03*
G04 #@! TD*
G04 #@! TO.C,TP10*
X120000000Y-97000000D03*
G04 #@! TD*
D17*
G04 #@! TO.C,J1*
X137500000Y-54520000D03*
D18*
X137500000Y-57060000D03*
X137500000Y-59600000D03*
X137500000Y-62140000D03*
X137500000Y-64680000D03*
G04 #@! TD*
D19*
G04 #@! TO.C,C4*
X78450000Y-56540000D03*
X78450000Y-57500000D03*
G04 #@! TD*
D14*
G04 #@! TO.C,TP4*
X92000000Y-97000000D03*
G04 #@! TD*
D20*
G04 #@! TO.C,H2*
X54000000Y-96000000D03*
G04 #@! TD*
D14*
G04 #@! TO.C,TP7*
X108000000Y-97000000D03*
G04 #@! TD*
D21*
G04 #@! TO.C,D2*
X99500000Y-58400000D03*
X100600000Y-58400000D03*
X100600000Y-56570000D03*
X99500000Y-56570000D03*
G04 #@! TD*
D15*
G04 #@! TO.C,C2*
X99520000Y-55210000D03*
X100480000Y-55210000D03*
G04 #@! TD*
D14*
G04 #@! TO.C,TP8*
X112000000Y-97000000D03*
G04 #@! TD*
D22*
G04 #@! TO.C,U1*
X51790000Y-82620000D03*
D23*
X54330000Y-82620000D03*
X56870000Y-82620000D03*
X59410000Y-82620000D03*
X61950000Y-82620000D03*
X64490000Y-82620000D03*
X67030000Y-82620000D03*
X69570000Y-82620000D03*
X72110000Y-82620000D03*
X74650000Y-82620000D03*
X77190000Y-82620000D03*
X79730000Y-82620000D03*
X82270000Y-82620000D03*
X84810000Y-82620000D03*
X87350000Y-82620000D03*
X89890000Y-82620000D03*
X92430000Y-82620000D03*
X94970000Y-82620000D03*
X97510000Y-82620000D03*
X100050000Y-82620000D03*
X102590000Y-82620000D03*
X105130000Y-82620000D03*
X107670000Y-82620000D03*
X110210000Y-82620000D03*
X110210000Y-67380000D03*
X107670000Y-67380000D03*
X105130000Y-67380000D03*
X102590000Y-67380000D03*
X100050000Y-67380000D03*
X97510000Y-67380000D03*
X94970000Y-67380000D03*
X92430000Y-67380000D03*
X89890000Y-67380000D03*
X87350000Y-67380000D03*
X84810000Y-67380000D03*
X82270000Y-67380000D03*
X79730000Y-67380000D03*
X77190000Y-67380000D03*
X74650000Y-67380000D03*
X72110000Y-67380000D03*
X69570000Y-67380000D03*
X67030000Y-67380000D03*
X64490000Y-67380000D03*
X61950000Y-67380000D03*
X59410000Y-67380000D03*
X56870000Y-67380000D03*
X54330000Y-67380000D03*
X51790000Y-67380000D03*
G04 #@! TD*
D21*
G04 #@! TO.C,D1*
X84450000Y-58400000D03*
X85550000Y-58400000D03*
X85550000Y-56570000D03*
X84450000Y-56570000D03*
G04 #@! TD*
D20*
G04 #@! TO.C,H3*
X146000000Y-96000000D03*
G04 #@! TD*
G04 #@! TO.C,H4*
X146000000Y-54000000D03*
G04 #@! TD*
D21*
G04 #@! TO.C,D3*
X114450000Y-58400000D03*
X115550000Y-58400000D03*
X115550000Y-56570000D03*
X114450000Y-56570000D03*
G04 #@! TD*
D20*
G04 #@! TO.C,H1*
X54000000Y-54000000D03*
G04 #@! TD*
D15*
G04 #@! TO.C,C1*
X84520000Y-55260000D03*
X85480000Y-55260000D03*
G04 #@! TD*
D14*
G04 #@! TO.C,TP5*
X96000000Y-97000000D03*
G04 #@! TD*
D17*
G04 #@! TO.C,J2*
X137500000Y-85320000D03*
D18*
X137500000Y-87860000D03*
X137500000Y-90400000D03*
X137500000Y-92940000D03*
X137500000Y-95480000D03*
G04 #@! TD*
D14*
G04 #@! TO.C,TP3*
X88000000Y-97000000D03*
G04 #@! TD*
%LPD*%
M02*
