M48
; DRILL file {KiCad 9.0.4-9.0.4-0~ubuntu22.04.1} date 2025-10-13T12:48:48-0700
; FORMAT={-:-/ absolute / metric / decimal}
; #@! TF.CreationDate,2025-10-13T12:48:48-07:00
; #@! TF.GenerationSoftware,Kicad,Pcbnew,9.0.4-9.0.4-0~ubuntu22.04.1
; #@! TF.FileFunction,Plated,1,2,PTH
FMAT,2
METRIC
; #@! TA.AperFunction,Plated,PTH,ViaDrill
T1C0.300
; #@! TA.AperFunction,Plated,PTH,ComponentDrill
T2C1.000
; #@! TA.AperFunction,Plated,PTH,ComponentDrill
T3C1.100
%
G90
G05
T1
X72.875Y-58.45
X86.875Y-58.425
X86.925Y-55.25
X101.925Y-55.225
X101.925Y-58.425
X104.959Y-85.073
X105.078Y-84.222
X116.825Y-55.25
X116.825Y-58.4
T2
X80.0Y-97.0
X84.0Y-97.0
X88.0Y-97.0
X92.0Y-97.0
X96.0Y-97.0
X104.0Y-97.0
X108.0Y-97.0
X112.0Y-97.0
X116.0Y-97.0
X120.0Y-97.0
X137.5Y-54.52
X137.5Y-57.06
X137.5Y-59.6
X137.5Y-62.14
X137.5Y-64.68
X137.5Y-85.32
X137.5Y-87.86
X137.5Y-90.4
X137.5Y-92.94
X137.5Y-95.48
T3
X51.79Y-67.38
X51.79Y-82.62
X54.33Y-67.38
X54.33Y-82.62
X56.87Y-67.38
X56.87Y-82.62
X59.41Y-67.38
X59.41Y-82.62
X61.95Y-67.38
X61.95Y-82.62
X64.49Y-67.38
X64.49Y-82.62
X67.03Y-67.38
X67.03Y-82.62
X69.57Y-67.38
X69.57Y-82.62
X72.11Y-67.38
X72.11Y-82.62
X74.65Y-67.38
X74.65Y-82.62
X77.19Y-67.38
X77.19Y-82.62
X79.73Y-67.38
X79.73Y-82.62
X82.27Y-67.38
X82.27Y-82.62
X84.81Y-67.38
X84.81Y-82.62
X87.35Y-67.38
X87.35Y-82.62
X89.89Y-67.38
X89.89Y-82.62
X92.43Y-67.38
X92.43Y-82.62
X94.97Y-67.38
X94.97Y-82.62
X97.51Y-67.38
X97.51Y-82.62
X100.05Y-67.38
X100.05Y-82.62
X102.59Y-67.38
X102.59Y-82.62
X105.13Y-67.38
X105.13Y-82.62
X107.67Y-67.38
X107.67Y-82.62
X110.21Y-67.38
X110.21Y-82.62
M30
