G04 #@! TF.GenerationSoftware,KiCad,Pcbnew,9.0.4-9.0.4-0~ubuntu22.04.1*
G04 #@! TF.CreationDate,2025-10-13T12:48:48-07:00*
G04 #@! TF.ProjectId,test_arena,74657374-5f61-4726-956e-612e6b696361,rev?*
G04 #@! TF.SameCoordinates,Original*
G04 #@! TF.FileFunction,Soldermask,Top*
G04 #@! TF.FilePolarity,Negative*
%FSLAX46Y46*%
G04 Gerber Fmt 4.6, Leading zero omitted, Abs format (unit mm)*
G04 Created by KiCad (PCBNEW 9.0.4-9.0.4-0~ubuntu22.04.1) date 2025-10-13 12:48:48*
%MOMM*%
%LPD*%
G01*
G04 APERTURE LIST*
G04 Aperture macros list*
%AMRoundRect*
0 Rectangle with rounded corners*
0 $1 Rounding radius*
0 $2 $3 $4 $5 $6 $7 $8 $9 X,Y pos of 4 corners*
0 Add a 4 corners polygon primitive as box body*
4,1,4,$2,$3,$4,$5,$6,$7,$8,$9,$2,$3,0*
0 Add four circle primitives for the rounded corners*
1,1,$1+$1,$2,$3*
1,1,$1+$1,$4,$5*
1,1,$1+$1,$6,$7*
1,1,$1+$1,$8,$9*
0 Add four rect primitives between the rounded corners*
20,1,$1+$1,$2,$3,$4,$5,0*
20,1,$1+$1,$4,$5,$6,$7,0*
20,1,$1+$1,$6,$7,$8,$9,0*
20,1,$1+$1,$8,$9,$2,$3,0*%
G04 Aperture macros list end*
%ADD10C,2.000000*%
%ADD11RoundRect,0.140000X-0.140000X-0.170000X0.140000X-0.170000X0.140000X0.170000X-0.140000X0.170000X0*%
%ADD12RoundRect,0.150000X-0.512500X-0.150000X0.512500X-0.150000X0.512500X0.150000X-0.512500X0.150000X0*%
%ADD13R,1.700000X1.700000*%
%ADD14C,1.700000*%
%ADD15RoundRect,0.140000X-0.170000X0.140000X-0.170000X-0.140000X0.170000X-0.140000X0.170000X0.140000X0*%
%ADD16C,3.200000*%
%ADD17R,0.700000X0.700000*%
%ADD18R,1.600000X1.600000*%
%ADD19C,1.600000*%
G04 APERTURE END LIST*
D10*
G04 #@! TO.C,TP6*
X104000000Y-97000000D03*
G04 #@! TD*
D11*
G04 #@! TO.C,C3*
X114520000Y-55240000D03*
X115480000Y-55240000D03*
G04 #@! TD*
D10*
G04 #@! TO.C,TP9*
X116000000Y-97000000D03*
G04 #@! TD*
G04 #@! TO.C,TP2*
X84000000Y-97000000D03*
G04 #@! TD*
D12*
G04 #@! TO.C,U2*
X74565000Y-56540000D03*
X74565000Y-57490000D03*
X74565000Y-58440000D03*
X76840000Y-58440000D03*
X76840000Y-56540000D03*
G04 #@! TD*
D10*
G04 #@! TO.C,TP1*
X80000000Y-97000000D03*
G04 #@! TD*
G04 #@! TO.C,TP10*
X120000000Y-97000000D03*
G04 #@! TD*
D13*
G04 #@! TO.C,J1*
X137500000Y-54520000D03*
D14*
X137500000Y-57060000D03*
X137500000Y-59600000D03*
X137500000Y-62140000D03*
X137500000Y-64680000D03*
G04 #@! TD*
D15*
G04 #@! TO.C,C4*
X78450000Y-56540000D03*
X78450000Y-57500000D03*
G04 #@! TD*
D10*
G04 #@! TO.C,TP4*
X92000000Y-97000000D03*
G04 #@! TD*
D16*
G04 #@! TO.C,H2*
X54000000Y-96000000D03*
G04 #@! TD*
D10*
G04 #@! TO.C,TP7*
X108000000Y-97000000D03*
G04 #@! TD*
D17*
G04 #@! TO.C,D2*
X99500000Y-58400000D03*
X100600000Y-58400000D03*
X100600000Y-56570000D03*
X99500000Y-56570000D03*
G04 #@! TD*
D11*
G04 #@! TO.C,C2*
X99520000Y-55210000D03*
X100480000Y-55210000D03*
G04 #@! TD*
D10*
G04 #@! TO.C,TP8*
X112000000Y-97000000D03*
G04 #@! TD*
D18*
G04 #@! TO.C,U1*
X51790000Y-82620000D03*
D19*
X54330000Y-82620000D03*
X56870000Y-82620000D03*
X59410000Y-82620000D03*
X61950000Y-82620000D03*
X64490000Y-82620000D03*
X67030000Y-82620000D03*
X69570000Y-82620000D03*
X72110000Y-82620000D03*
X74650000Y-82620000D03*
X77190000Y-82620000D03*
X79730000Y-82620000D03*
X82270000Y-82620000D03*
X84810000Y-82620000D03*
X87350000Y-82620000D03*
X89890000Y-82620000D03*
X92430000Y-82620000D03*
X94970000Y-82620000D03*
X97510000Y-82620000D03*
X100050000Y-82620000D03*
X102590000Y-82620000D03*
X105130000Y-82620000D03*
X107670000Y-82620000D03*
X110210000Y-82620000D03*
X110210000Y-67380000D03*
X107670000Y-67380000D03*
X105130000Y-67380000D03*
X102590000Y-67380000D03*
X100050000Y-67380000D03*
X97510000Y-67380000D03*
X94970000Y-67380000D03*
X92430000Y-67380000D03*
X89890000Y-67380000D03*
X87350000Y-67380000D03*
X84810000Y-67380000D03*
X82270000Y-67380000D03*
X79730000Y-67380000D03*
X77190000Y-67380000D03*
X74650000Y-67380000D03*
X72110000Y-67380000D03*
X69570000Y-67380000D03*
X67030000Y-67380000D03*
X64490000Y-67380000D03*
X61950000Y-67380000D03*
X59410000Y-67380000D03*
X56870000Y-67380000D03*
X54330000Y-67380000D03*
X51790000Y-67380000D03*
G04 #@! TD*
D17*
G04 #@! TO.C,D1*
X84450000Y-58400000D03*
X85550000Y-58400000D03*
X85550000Y-56570000D03*
X84450000Y-56570000D03*
G04 #@! TD*
D16*
G04 #@! TO.C,H3*
X146000000Y-96000000D03*
G04 #@! TD*
G04 #@! TO.C,H4*
X146000000Y-54000000D03*
G04 #@! TD*
D17*
G04 #@! TO.C,D3*
X114450000Y-58400000D03*
X115550000Y-58400000D03*
X115550000Y-56570000D03*
X114450000Y-56570000D03*
G04 #@! TD*
D16*
G04 #@! TO.C,H1*
X54000000Y-54000000D03*
G04 #@! TD*
D11*
G04 #@! TO.C,C1*
X84520000Y-55260000D03*
X85480000Y-55260000D03*
G04 #@! TD*
D10*
G04 #@! TO.C,TP5*
X96000000Y-97000000D03*
G04 #@! TD*
D13*
G04 #@! TO.C,J2*
X137500000Y-85320000D03*
D14*
X137500000Y-87860000D03*
X137500000Y-90400000D03*
X137500000Y-92940000D03*
X137500000Y-95480000D03*
G04 #@! TD*
D10*
G04 #@! TO.C,TP3*
X88000000Y-97000000D03*
G04 #@! TD*
M02*
