G04 #@! TF.GenerationSoftware,KiCad,Pcbnew,9.0.4-9.0.4-0~ubuntu22.04.1*
G04 #@! TF.CreationDate,2025-10-13T12:48:48-07:00*
G04 #@! TF.ProjectId,test_arena,74657374-5f61-4726-956e-612e6b696361,rev?*
G04 #@! TF.SameCoordinates,Original*
G04 #@! TF.FileFunction,Legend,Bot*
G04 #@! TF.FilePolarity,Positive*
%FSLAX46Y46*%
G04 Gerber Fmt 4.6, Leading zero omitted, Abs format (unit mm)*
G04 Created by KiCad (PCBNEW 9.0.4-9.0.4-0~ubuntu22.04.1) date 2025-10-13 12:48:48*
%MOMM*%
%LPD*%
G01*
G04 APERTURE LIST*
%ADD10C,2.000000*%
%ADD11R,1.700000X1.700000*%
%ADD12C,1.700000*%
%ADD13C,3.200000*%
%ADD14R,1.600000X1.600000*%
%ADD15C,1.600000*%
G04 APERTURE END LIST*
%LPC*%
D10*
G04 #@! TO.C,TP6*
X104000000Y-97000000D03*
G04 #@! TD*
G04 #@! TO.C,TP9*
X116000000Y-97000000D03*
G04 #@! TD*
G04 #@! TO.C,TP2*
X84000000Y-97000000D03*
G04 #@! TD*
G04 #@! TO.C,TP1*
X80000000Y-97000000D03*
G04 #@! TD*
G04 #@! TO.C,TP10*
X120000000Y-97000000D03*
G04 #@! TD*
D11*
G04 #@! TO.C,J1*
X137500000Y-54520000D03*
D12*
X137500000Y-57060000D03*
X137500000Y-59600000D03*
X137500000Y-62140000D03*
X137500000Y-64680000D03*
G04 #@! TD*
D10*
G04 #@! TO.C,TP4*
X92000000Y-97000000D03*
G04 #@! TD*
D13*
G04 #@! TO.C,H2*
X54000000Y-96000000D03*
G04 #@! TD*
D10*
G04 #@! TO.C,TP7*
X108000000Y-97000000D03*
G04 #@! TD*
G04 #@! TO.C,TP8*
X112000000Y-97000000D03*
G04 #@! TD*
D14*
G04 #@! TO.C,U1*
X51790000Y-82620000D03*
D15*
X54330000Y-82620000D03*
X56870000Y-82620000D03*
X59410000Y-82620000D03*
X61950000Y-82620000D03*
X64490000Y-82620000D03*
X67030000Y-82620000D03*
X69570000Y-82620000D03*
X72110000Y-82620000D03*
X74650000Y-82620000D03*
X77190000Y-82620000D03*
X79730000Y-82620000D03*
X82270000Y-82620000D03*
X84810000Y-82620000D03*
X87350000Y-82620000D03*
X89890000Y-82620000D03*
X92430000Y-82620000D03*
X94970000Y-82620000D03*
X97510000Y-82620000D03*
X100050000Y-82620000D03*
X102590000Y-82620000D03*
X105130000Y-82620000D03*
X107670000Y-82620000D03*
X110210000Y-82620000D03*
X110210000Y-67380000D03*
X107670000Y-67380000D03*
X105130000Y-67380000D03*
X102590000Y-67380000D03*
X100050000Y-67380000D03*
X97510000Y-67380000D03*
X94970000Y-67380000D03*
X92430000Y-67380000D03*
X89890000Y-67380000D03*
X87350000Y-67380000D03*
X84810000Y-67380000D03*
X82270000Y-67380000D03*
X79730000Y-67380000D03*
X77190000Y-67380000D03*
X74650000Y-67380000D03*
X72110000Y-67380000D03*
X69570000Y-67380000D03*
X67030000Y-67380000D03*
X64490000Y-67380000D03*
X61950000Y-67380000D03*
X59410000Y-67380000D03*
X56870000Y-67380000D03*
X54330000Y-67380000D03*
X51790000Y-67380000D03*
G04 #@! TD*
D13*
G04 #@! TO.C,H3*
X146000000Y-96000000D03*
G04 #@! TD*
G04 #@! TO.C,H4*
X146000000Y-54000000D03*
G04 #@! TD*
G04 #@! TO.C,H1*
X54000000Y-54000000D03*
G04 #@! TD*
D10*
G04 #@! TO.C,TP5*
X96000000Y-97000000D03*
G04 #@! TD*
D11*
G04 #@! TO.C,J2*
X137500000Y-85320000D03*
D12*
X137500000Y-87860000D03*
X137500000Y-90400000D03*
X137500000Y-92940000D03*
X137500000Y-95480000D03*
G04 #@! TD*
D10*
G04 #@! TO.C,TP3*
X88000000Y-97000000D03*
G04 #@! TD*
%LPD*%
M02*
