%TF.GenerationSoftware,KiCad,Pcbnew,9.0.4-9.0.4-0~ubuntu22.04.1*%
%TF.CreationDate,2025-10-13T12:48:48-07:00*%
%TF.ProjectId,test_arena,74657374-5f61-4726-956e-612e6b696361,rev?*%
%TF.SameCoordinates,Original*%
%TF.FileFunction,Drillmap*%
%TF.FilePolarity,Positive*%
%FSLAX45Y45*%
G04 Gerber Fmt 4.5, Leading zero omitted, Abs format (unit mm)*
G04 Created by KiCad (PCBNEW 9.0.4-9.0.4-0~ubuntu22.04.1) date 2025-10-13 12:48:48*
%MOMM*%
%LPD*%
G01*
G04 APERTURE LIST*
%ADD10C,0.050000*%
%ADD11C,0.200000*%
%ADD12C,0.100000*%
%ADD13C,0.110000*%
G04 APERTURE END LIST*
D10*
X5200000Y-5000000D02*
X14800000Y-5000000D01*
X15000000Y-9800000D02*
G75*
G02*
X14800000Y-10000000I-200000J0D01*
G01*
X5000000Y-9800000D02*
X5000000Y-5200000D01*
X5000000Y-5200000D02*
G75*
G02*
X5200000Y-5000000I200000J0D01*
G01*
X5200000Y-10000000D02*
G75*
G02*
X5000000Y-9800000I0J200000D01*
G01*
X14800000Y-10000000D02*
X5200000Y-10000000D01*
X15000000Y-5200000D02*
X15000000Y-9800000D01*
X14800000Y-5000000D02*
G75*
G02*
X15000000Y-5200000I0J-200000D01*
G01*
D11*
D12*
X7272500Y-5830000D02*
X7302500Y-5860000D01*
X7302500Y-5830000D02*
X7272500Y-5860000D01*
X8672500Y-5827500D02*
X8702500Y-5857500D01*
X8702500Y-5827500D02*
X8672500Y-5857500D01*
X8677500Y-5510000D02*
X8707500Y-5540000D01*
X8707500Y-5510000D02*
X8677500Y-5540000D01*
X10177500Y-5507500D02*
X10207500Y-5537500D01*
X10207500Y-5507500D02*
X10177500Y-5537500D01*
X10177500Y-5827500D02*
X10207500Y-5857500D01*
X10207500Y-5827500D02*
X10177500Y-5857500D01*
X10480880Y-8492350D02*
X10510880Y-8522350D01*
X10510880Y-8492350D02*
X10480880Y-8522350D01*
X10492840Y-8407190D02*
X10522840Y-8437190D01*
X10522840Y-8407190D02*
X10492840Y-8437190D01*
X11667500Y-5510000D02*
X11697500Y-5540000D01*
X11697500Y-5510000D02*
X11667500Y-5540000D01*
X11667500Y-5825000D02*
X11697500Y-5855000D01*
X11697500Y-5825000D02*
X11667500Y-5855000D01*
X8050000Y-9700000D02*
G75*
G02*
X7950000Y-9700000I-50000J0D01*
G01*
X7950000Y-9700000D02*
G75*
G02*
X8050000Y-9700000I50000J0D01*
G01*
X8450000Y-9700000D02*
G75*
G02*
X8350000Y-9700000I-50000J0D01*
G01*
X8350000Y-9700000D02*
G75*
G02*
X8450000Y-9700000I50000J0D01*
G01*
X8850000Y-9700000D02*
G75*
G02*
X8750000Y-9700000I-50000J0D01*
G01*
X8750000Y-9700000D02*
G75*
G02*
X8850000Y-9700000I50000J0D01*
G01*
X9250000Y-9700000D02*
G75*
G02*
X9150000Y-9700000I-50000J0D01*
G01*
X9150000Y-9700000D02*
G75*
G02*
X9250000Y-9700000I50000J0D01*
G01*
X9650000Y-9700000D02*
G75*
G02*
X9550000Y-9700000I-50000J0D01*
G01*
X9550000Y-9700000D02*
G75*
G02*
X9650000Y-9700000I50000J0D01*
G01*
X10450000Y-9700000D02*
G75*
G02*
X10350000Y-9700000I-50000J0D01*
G01*
X10350000Y-9700000D02*
G75*
G02*
X10450000Y-9700000I50000J0D01*
G01*
X10850000Y-9700000D02*
G75*
G02*
X10750000Y-9700000I-50000J0D01*
G01*
X10750000Y-9700000D02*
G75*
G02*
X10850000Y-9700000I50000J0D01*
G01*
X11250000Y-9700000D02*
G75*
G02*
X11150000Y-9700000I-50000J0D01*
G01*
X11150000Y-9700000D02*
G75*
G02*
X11250000Y-9700000I50000J0D01*
G01*
X11650000Y-9700000D02*
G75*
G02*
X11550000Y-9700000I-50000J0D01*
G01*
X11550000Y-9700000D02*
G75*
G02*
X11650000Y-9700000I50000J0D01*
G01*
X12050000Y-9700000D02*
G75*
G02*
X11950000Y-9700000I-50000J0D01*
G01*
X11950000Y-9700000D02*
G75*
G02*
X12050000Y-9700000I50000J0D01*
G01*
X13800000Y-5452000D02*
G75*
G02*
X13700000Y-5452000I-50000J0D01*
G01*
X13700000Y-5452000D02*
G75*
G02*
X13800000Y-5452000I50000J0D01*
G01*
X13800000Y-5706000D02*
G75*
G02*
X13700000Y-5706000I-50000J0D01*
G01*
X13700000Y-5706000D02*
G75*
G02*
X13800000Y-5706000I50000J0D01*
G01*
X13800000Y-5960000D02*
G75*
G02*
X13700000Y-5960000I-50000J0D01*
G01*
X13700000Y-5960000D02*
G75*
G02*
X13800000Y-5960000I50000J0D01*
G01*
X13800000Y-6214000D02*
G75*
G02*
X13700000Y-6214000I-50000J0D01*
G01*
X13700000Y-6214000D02*
G75*
G02*
X13800000Y-6214000I50000J0D01*
G01*
X13800000Y-6468000D02*
G75*
G02*
X13700000Y-6468000I-50000J0D01*
G01*
X13700000Y-6468000D02*
G75*
G02*
X13800000Y-6468000I50000J0D01*
G01*
X13800000Y-8532000D02*
G75*
G02*
X13700000Y-8532000I-50000J0D01*
G01*
X13700000Y-8532000D02*
G75*
G02*
X13800000Y-8532000I50000J0D01*
G01*
X13800000Y-8786000D02*
G75*
G02*
X13700000Y-8786000I-50000J0D01*
G01*
X13700000Y-8786000D02*
G75*
G02*
X13800000Y-8786000I50000J0D01*
G01*
X13800000Y-9040000D02*
G75*
G02*
X13700000Y-9040000I-50000J0D01*
G01*
X13700000Y-9040000D02*
G75*
G02*
X13800000Y-9040000I50000J0D01*
G01*
X13800000Y-9294000D02*
G75*
G02*
X13700000Y-9294000I-50000J0D01*
G01*
X13700000Y-9294000D02*
G75*
G02*
X13800000Y-9294000I50000J0D01*
G01*
X13800000Y-9548000D02*
G75*
G02*
X13700000Y-9548000I-50000J0D01*
G01*
X13700000Y-9548000D02*
G75*
G02*
X13800000Y-9548000I50000J0D01*
G01*
D13*
X5179000Y-6683000D02*
X5179000Y-6793000D01*
X5124000Y-6738000D02*
X5234000Y-6738000D01*
X5179000Y-8207000D02*
X5179000Y-8317000D01*
X5124000Y-8262000D02*
X5234000Y-8262000D01*
X5433000Y-6683000D02*
X5433000Y-6793000D01*
X5378000Y-6738000D02*
X5488000Y-6738000D01*
X5433000Y-8207000D02*
X5433000Y-8317000D01*
X5378000Y-8262000D02*
X5488000Y-8262000D01*
X5687000Y-6683000D02*
X5687000Y-6793000D01*
X5632000Y-6738000D02*
X5742000Y-6738000D01*
X5687000Y-8207000D02*
X5687000Y-8317000D01*
X5632000Y-8262000D02*
X5742000Y-8262000D01*
X5941000Y-6683000D02*
X5941000Y-6793000D01*
X5886000Y-6738000D02*
X5996000Y-6738000D01*
X5941000Y-8207000D02*
X5941000Y-8317000D01*
X5886000Y-8262000D02*
X5996000Y-8262000D01*
X6195000Y-6683000D02*
X6195000Y-6793000D01*
X6140000Y-6738000D02*
X6250000Y-6738000D01*
X6195000Y-8207000D02*
X6195000Y-8317000D01*
X6140000Y-8262000D02*
X6250000Y-8262000D01*
X6449000Y-6683000D02*
X6449000Y-6793000D01*
X6394000Y-6738000D02*
X6504000Y-6738000D01*
X6449000Y-8207000D02*
X6449000Y-8317000D01*
X6394000Y-8262000D02*
X6504000Y-8262000D01*
X6703000Y-6683000D02*
X6703000Y-6793000D01*
X6648000Y-6738000D02*
X6758000Y-6738000D01*
X6703000Y-8207000D02*
X6703000Y-8317000D01*
X6648000Y-8262000D02*
X6758000Y-8262000D01*
X6957000Y-6683000D02*
X6957000Y-6793000D01*
X6902000Y-6738000D02*
X7012000Y-6738000D01*
X6957000Y-8207000D02*
X6957000Y-8317000D01*
X6902000Y-8262000D02*
X7012000Y-8262000D01*
X7211000Y-6683000D02*
X7211000Y-6793000D01*
X7156000Y-6738000D02*
X7266000Y-6738000D01*
X7211000Y-8207000D02*
X7211000Y-8317000D01*
X7156000Y-8262000D02*
X7266000Y-8262000D01*
X7465000Y-6683000D02*
X7465000Y-6793000D01*
X7410000Y-6738000D02*
X7520000Y-6738000D01*
X7465000Y-8207000D02*
X7465000Y-8317000D01*
X7410000Y-8262000D02*
X7520000Y-8262000D01*
X7719000Y-6683000D02*
X7719000Y-6793000D01*
X7664000Y-6738000D02*
X7774000Y-6738000D01*
X7719000Y-8207000D02*
X7719000Y-8317000D01*
X7664000Y-8262000D02*
X7774000Y-8262000D01*
X7973000Y-6683000D02*
X7973000Y-6793000D01*
X7918000Y-6738000D02*
X8028000Y-6738000D01*
X7973000Y-8207000D02*
X7973000Y-8317000D01*
X7918000Y-8262000D02*
X8028000Y-8262000D01*
X8227000Y-6683000D02*
X8227000Y-6793000D01*
X8172000Y-6738000D02*
X8282000Y-6738000D01*
X8227000Y-8207000D02*
X8227000Y-8317000D01*
X8172000Y-8262000D02*
X8282000Y-8262000D01*
X8481000Y-6683000D02*
X8481000Y-6793000D01*
X8426000Y-6738000D02*
X8536000Y-6738000D01*
X8481000Y-8207000D02*
X8481000Y-8317000D01*
X8426000Y-8262000D02*
X8536000Y-8262000D01*
X8735000Y-6683000D02*
X8735000Y-6793000D01*
X8680000Y-6738000D02*
X8790000Y-6738000D01*
X8735000Y-8207000D02*
X8735000Y-8317000D01*
X8680000Y-8262000D02*
X8790000Y-8262000D01*
X8989000Y-6683000D02*
X8989000Y-6793000D01*
X8934000Y-6738000D02*
X9044000Y-6738000D01*
X8989000Y-8207000D02*
X8989000Y-8317000D01*
X8934000Y-8262000D02*
X9044000Y-8262000D01*
X9243000Y-6683000D02*
X9243000Y-6793000D01*
X9188000Y-6738000D02*
X9298000Y-6738000D01*
X9243000Y-8207000D02*
X9243000Y-8317000D01*
X9188000Y-8262000D02*
X9298000Y-8262000D01*
X9497000Y-6683000D02*
X9497000Y-6793000D01*
X9442000Y-6738000D02*
X9552000Y-6738000D01*
X9497000Y-8207000D02*
X9497000Y-8317000D01*
X9442000Y-8262000D02*
X9552000Y-8262000D01*
X9751000Y-6683000D02*
X9751000Y-6793000D01*
X9696000Y-6738000D02*
X9806000Y-6738000D01*
X9751000Y-8207000D02*
X9751000Y-8317000D01*
X9696000Y-8262000D02*
X9806000Y-8262000D01*
X10005000Y-6683000D02*
X10005000Y-6793000D01*
X9950000Y-6738000D02*
X10060000Y-6738000D01*
X10005000Y-8207000D02*
X10005000Y-8317000D01*
X9950000Y-8262000D02*
X10060000Y-8262000D01*
X10259000Y-6683000D02*
X10259000Y-6793000D01*
X10204000Y-6738000D02*
X10314000Y-6738000D01*
X10259000Y-8207000D02*
X10259000Y-8317000D01*
X10204000Y-8262000D02*
X10314000Y-8262000D01*
X10513000Y-6683000D02*
X10513000Y-6793000D01*
X10458000Y-6738000D02*
X10568000Y-6738000D01*
X10513000Y-8207000D02*
X10513000Y-8317000D01*
X10458000Y-8262000D02*
X10568000Y-8262000D01*
X10767000Y-6683000D02*
X10767000Y-6793000D01*
X10712000Y-6738000D02*
X10822000Y-6738000D01*
X10767000Y-8207000D02*
X10767000Y-8317000D01*
X10712000Y-8262000D02*
X10822000Y-8262000D01*
X11021000Y-6683000D02*
X11021000Y-6793000D01*
X10966000Y-6738000D02*
X11076000Y-6738000D01*
X11021000Y-8207000D02*
X11021000Y-8317000D01*
X10966000Y-8262000D02*
X11076000Y-8262000D01*
D11*
X5258277Y-10313984D02*
X5258277Y-10113984D01*
X5258277Y-10113984D02*
X5305896Y-10113984D01*
X5305896Y-10113984D02*
X5334467Y-10123508D01*
X5334467Y-10123508D02*
X5353515Y-10142555D01*
X5353515Y-10142555D02*
X5363039Y-10161603D01*
X5363039Y-10161603D02*
X5372563Y-10199698D01*
X5372563Y-10199698D02*
X5372563Y-10228270D01*
X5372563Y-10228270D02*
X5363039Y-10266365D01*
X5363039Y-10266365D02*
X5353515Y-10285412D01*
X5353515Y-10285412D02*
X5334467Y-10304460D01*
X5334467Y-10304460D02*
X5305896Y-10313984D01*
X5305896Y-10313984D02*
X5258277Y-10313984D01*
X5458277Y-10313984D02*
X5458277Y-10180650D01*
X5458277Y-10218746D02*
X5467801Y-10199698D01*
X5467801Y-10199698D02*
X5477324Y-10190174D01*
X5477324Y-10190174D02*
X5496372Y-10180650D01*
X5496372Y-10180650D02*
X5515420Y-10180650D01*
X5582086Y-10313984D02*
X5582086Y-10180650D01*
X5582086Y-10113984D02*
X5572563Y-10123508D01*
X5572563Y-10123508D02*
X5582086Y-10133031D01*
X5582086Y-10133031D02*
X5591610Y-10123508D01*
X5591610Y-10123508D02*
X5582086Y-10113984D01*
X5582086Y-10113984D02*
X5582086Y-10133031D01*
X5705896Y-10313984D02*
X5686848Y-10304460D01*
X5686848Y-10304460D02*
X5677324Y-10285412D01*
X5677324Y-10285412D02*
X5677324Y-10113984D01*
X5810658Y-10313984D02*
X5791610Y-10304460D01*
X5791610Y-10304460D02*
X5782086Y-10285412D01*
X5782086Y-10285412D02*
X5782086Y-10113984D01*
X6039229Y-10313984D02*
X6039229Y-10113984D01*
X6039229Y-10113984D02*
X6105896Y-10256841D01*
X6105896Y-10256841D02*
X6172562Y-10113984D01*
X6172562Y-10113984D02*
X6172562Y-10313984D01*
X6353515Y-10313984D02*
X6353515Y-10209222D01*
X6353515Y-10209222D02*
X6343991Y-10190174D01*
X6343991Y-10190174D02*
X6324943Y-10180650D01*
X6324943Y-10180650D02*
X6286848Y-10180650D01*
X6286848Y-10180650D02*
X6267801Y-10190174D01*
X6353515Y-10304460D02*
X6334467Y-10313984D01*
X6334467Y-10313984D02*
X6286848Y-10313984D01*
X6286848Y-10313984D02*
X6267801Y-10304460D01*
X6267801Y-10304460D02*
X6258277Y-10285412D01*
X6258277Y-10285412D02*
X6258277Y-10266365D01*
X6258277Y-10266365D02*
X6267801Y-10247317D01*
X6267801Y-10247317D02*
X6286848Y-10237793D01*
X6286848Y-10237793D02*
X6334467Y-10237793D01*
X6334467Y-10237793D02*
X6353515Y-10228270D01*
X6448753Y-10180650D02*
X6448753Y-10380650D01*
X6448753Y-10190174D02*
X6467801Y-10180650D01*
X6467801Y-10180650D02*
X6505896Y-10180650D01*
X6505896Y-10180650D02*
X6524943Y-10190174D01*
X6524943Y-10190174D02*
X6534467Y-10199698D01*
X6534467Y-10199698D02*
X6543991Y-10218746D01*
X6543991Y-10218746D02*
X6543991Y-10275889D01*
X6543991Y-10275889D02*
X6534467Y-10294936D01*
X6534467Y-10294936D02*
X6524943Y-10304460D01*
X6524943Y-10304460D02*
X6505896Y-10313984D01*
X6505896Y-10313984D02*
X6467801Y-10313984D01*
X6467801Y-10313984D02*
X6448753Y-10304460D01*
X6629705Y-10294936D02*
X6639229Y-10304460D01*
X6639229Y-10304460D02*
X6629705Y-10313984D01*
X6629705Y-10313984D02*
X6620182Y-10304460D01*
X6620182Y-10304460D02*
X6629705Y-10294936D01*
X6629705Y-10294936D02*
X6629705Y-10313984D01*
X6629705Y-10190174D02*
X6639229Y-10199698D01*
X6639229Y-10199698D02*
X6629705Y-10209222D01*
X6629705Y-10209222D02*
X6620182Y-10199698D01*
X6620182Y-10199698D02*
X6629705Y-10190174D01*
X6629705Y-10190174D02*
X6629705Y-10209222D01*
D12*
X4967500Y-10627500D02*
X4997500Y-10657500D01*
X4997500Y-10627500D02*
X4967500Y-10657500D01*
D11*
X5296372Y-10533984D02*
X5315420Y-10533984D01*
X5315420Y-10533984D02*
X5334467Y-10543508D01*
X5334467Y-10543508D02*
X5343991Y-10553031D01*
X5343991Y-10553031D02*
X5353515Y-10572079D01*
X5353515Y-10572079D02*
X5363039Y-10610174D01*
X5363039Y-10610174D02*
X5363039Y-10657793D01*
X5363039Y-10657793D02*
X5353515Y-10695889D01*
X5353515Y-10695889D02*
X5343991Y-10714936D01*
X5343991Y-10714936D02*
X5334467Y-10724460D01*
X5334467Y-10724460D02*
X5315420Y-10733984D01*
X5315420Y-10733984D02*
X5296372Y-10733984D01*
X5296372Y-10733984D02*
X5277324Y-10724460D01*
X5277324Y-10724460D02*
X5267801Y-10714936D01*
X5267801Y-10714936D02*
X5258277Y-10695889D01*
X5258277Y-10695889D02*
X5248753Y-10657793D01*
X5248753Y-10657793D02*
X5248753Y-10610174D01*
X5248753Y-10610174D02*
X5258277Y-10572079D01*
X5258277Y-10572079D02*
X5267801Y-10553031D01*
X5267801Y-10553031D02*
X5277324Y-10543508D01*
X5277324Y-10543508D02*
X5296372Y-10533984D01*
X5448753Y-10714936D02*
X5458277Y-10724460D01*
X5458277Y-10724460D02*
X5448753Y-10733984D01*
X5448753Y-10733984D02*
X5439229Y-10724460D01*
X5439229Y-10724460D02*
X5448753Y-10714936D01*
X5448753Y-10714936D02*
X5448753Y-10733984D01*
X5524944Y-10533984D02*
X5648753Y-10533984D01*
X5648753Y-10533984D02*
X5582086Y-10610174D01*
X5582086Y-10610174D02*
X5610658Y-10610174D01*
X5610658Y-10610174D02*
X5629705Y-10619698D01*
X5629705Y-10619698D02*
X5639229Y-10629222D01*
X5639229Y-10629222D02*
X5648753Y-10648270D01*
X5648753Y-10648270D02*
X5648753Y-10695889D01*
X5648753Y-10695889D02*
X5639229Y-10714936D01*
X5639229Y-10714936D02*
X5629705Y-10724460D01*
X5629705Y-10724460D02*
X5610658Y-10733984D01*
X5610658Y-10733984D02*
X5553515Y-10733984D01*
X5553515Y-10733984D02*
X5534467Y-10724460D01*
X5534467Y-10724460D02*
X5524944Y-10714936D01*
X5772562Y-10533984D02*
X5791610Y-10533984D01*
X5791610Y-10533984D02*
X5810658Y-10543508D01*
X5810658Y-10543508D02*
X5820182Y-10553031D01*
X5820182Y-10553031D02*
X5829705Y-10572079D01*
X5829705Y-10572079D02*
X5839229Y-10610174D01*
X5839229Y-10610174D02*
X5839229Y-10657793D01*
X5839229Y-10657793D02*
X5829705Y-10695889D01*
X5829705Y-10695889D02*
X5820182Y-10714936D01*
X5820182Y-10714936D02*
X5810658Y-10724460D01*
X5810658Y-10724460D02*
X5791610Y-10733984D01*
X5791610Y-10733984D02*
X5772562Y-10733984D01*
X5772562Y-10733984D02*
X5753515Y-10724460D01*
X5753515Y-10724460D02*
X5743991Y-10714936D01*
X5743991Y-10714936D02*
X5734467Y-10695889D01*
X5734467Y-10695889D02*
X5724943Y-10657793D01*
X5724943Y-10657793D02*
X5724943Y-10610174D01*
X5724943Y-10610174D02*
X5734467Y-10572079D01*
X5734467Y-10572079D02*
X5743991Y-10553031D01*
X5743991Y-10553031D02*
X5753515Y-10543508D01*
X5753515Y-10543508D02*
X5772562Y-10533984D01*
X5963039Y-10533984D02*
X5982086Y-10533984D01*
X5982086Y-10533984D02*
X6001134Y-10543508D01*
X6001134Y-10543508D02*
X6010658Y-10553031D01*
X6010658Y-10553031D02*
X6020182Y-10572079D01*
X6020182Y-10572079D02*
X6029705Y-10610174D01*
X6029705Y-10610174D02*
X6029705Y-10657793D01*
X6029705Y-10657793D02*
X6020182Y-10695889D01*
X6020182Y-10695889D02*
X6010658Y-10714936D01*
X6010658Y-10714936D02*
X6001134Y-10724460D01*
X6001134Y-10724460D02*
X5982086Y-10733984D01*
X5982086Y-10733984D02*
X5963039Y-10733984D01*
X5963039Y-10733984D02*
X5943991Y-10724460D01*
X5943991Y-10724460D02*
X5934467Y-10714936D01*
X5934467Y-10714936D02*
X5924943Y-10695889D01*
X5924943Y-10695889D02*
X5915420Y-10657793D01*
X5915420Y-10657793D02*
X5915420Y-10610174D01*
X5915420Y-10610174D02*
X5924943Y-10572079D01*
X5924943Y-10572079D02*
X5934467Y-10553031D01*
X5934467Y-10553031D02*
X5943991Y-10543508D01*
X5943991Y-10543508D02*
X5963039Y-10533984D01*
X6115420Y-10733984D02*
X6115420Y-10600650D01*
X6115420Y-10619698D02*
X6124943Y-10610174D01*
X6124943Y-10610174D02*
X6143991Y-10600650D01*
X6143991Y-10600650D02*
X6172563Y-10600650D01*
X6172563Y-10600650D02*
X6191610Y-10610174D01*
X6191610Y-10610174D02*
X6201134Y-10629222D01*
X6201134Y-10629222D02*
X6201134Y-10733984D01*
X6201134Y-10629222D02*
X6210658Y-10610174D01*
X6210658Y-10610174D02*
X6229705Y-10600650D01*
X6229705Y-10600650D02*
X6258277Y-10600650D01*
X6258277Y-10600650D02*
X6277324Y-10610174D01*
X6277324Y-10610174D02*
X6286848Y-10629222D01*
X6286848Y-10629222D02*
X6286848Y-10733984D01*
X6382086Y-10733984D02*
X6382086Y-10600650D01*
X6382086Y-10619698D02*
X6391610Y-10610174D01*
X6391610Y-10610174D02*
X6410658Y-10600650D01*
X6410658Y-10600650D02*
X6439229Y-10600650D01*
X6439229Y-10600650D02*
X6458277Y-10610174D01*
X6458277Y-10610174D02*
X6467801Y-10629222D01*
X6467801Y-10629222D02*
X6467801Y-10733984D01*
X6467801Y-10629222D02*
X6477324Y-10610174D01*
X6477324Y-10610174D02*
X6496372Y-10600650D01*
X6496372Y-10600650D02*
X6524943Y-10600650D01*
X6524943Y-10600650D02*
X6543991Y-10610174D01*
X6543991Y-10610174D02*
X6553515Y-10629222D01*
X6553515Y-10629222D02*
X6553515Y-10733984D01*
X6943991Y-10524460D02*
X6772563Y-10781603D01*
X7201134Y-10533984D02*
X7220182Y-10533984D01*
X7220182Y-10533984D02*
X7239229Y-10543508D01*
X7239229Y-10543508D02*
X7248753Y-10553031D01*
X7248753Y-10553031D02*
X7258277Y-10572079D01*
X7258277Y-10572079D02*
X7267801Y-10610174D01*
X7267801Y-10610174D02*
X7267801Y-10657793D01*
X7267801Y-10657793D02*
X7258277Y-10695889D01*
X7258277Y-10695889D02*
X7248753Y-10714936D01*
X7248753Y-10714936D02*
X7239229Y-10724460D01*
X7239229Y-10724460D02*
X7220182Y-10733984D01*
X7220182Y-10733984D02*
X7201134Y-10733984D01*
X7201134Y-10733984D02*
X7182086Y-10724460D01*
X7182086Y-10724460D02*
X7172563Y-10714936D01*
X7172563Y-10714936D02*
X7163039Y-10695889D01*
X7163039Y-10695889D02*
X7153515Y-10657793D01*
X7153515Y-10657793D02*
X7153515Y-10610174D01*
X7153515Y-10610174D02*
X7163039Y-10572079D01*
X7163039Y-10572079D02*
X7172563Y-10553031D01*
X7172563Y-10553031D02*
X7182086Y-10543508D01*
X7182086Y-10543508D02*
X7201134Y-10533984D01*
X7353515Y-10714936D02*
X7363039Y-10724460D01*
X7363039Y-10724460D02*
X7353515Y-10733984D01*
X7353515Y-10733984D02*
X7343991Y-10724460D01*
X7343991Y-10724460D02*
X7353515Y-10714936D01*
X7353515Y-10714936D02*
X7353515Y-10733984D01*
X7486848Y-10533984D02*
X7505896Y-10533984D01*
X7505896Y-10533984D02*
X7524944Y-10543508D01*
X7524944Y-10543508D02*
X7534467Y-10553031D01*
X7534467Y-10553031D02*
X7543991Y-10572079D01*
X7543991Y-10572079D02*
X7553515Y-10610174D01*
X7553515Y-10610174D02*
X7553515Y-10657793D01*
X7553515Y-10657793D02*
X7543991Y-10695889D01*
X7543991Y-10695889D02*
X7534467Y-10714936D01*
X7534467Y-10714936D02*
X7524944Y-10724460D01*
X7524944Y-10724460D02*
X7505896Y-10733984D01*
X7505896Y-10733984D02*
X7486848Y-10733984D01*
X7486848Y-10733984D02*
X7467801Y-10724460D01*
X7467801Y-10724460D02*
X7458277Y-10714936D01*
X7458277Y-10714936D02*
X7448753Y-10695889D01*
X7448753Y-10695889D02*
X7439229Y-10657793D01*
X7439229Y-10657793D02*
X7439229Y-10610174D01*
X7439229Y-10610174D02*
X7448753Y-10572079D01*
X7448753Y-10572079D02*
X7458277Y-10553031D01*
X7458277Y-10553031D02*
X7467801Y-10543508D01*
X7467801Y-10543508D02*
X7486848Y-10533984D01*
X7743991Y-10733984D02*
X7629706Y-10733984D01*
X7686848Y-10733984D02*
X7686848Y-10533984D01*
X7686848Y-10533984D02*
X7667801Y-10562555D01*
X7667801Y-10562555D02*
X7648753Y-10581603D01*
X7648753Y-10581603D02*
X7629706Y-10591127D01*
X7934467Y-10733984D02*
X7820182Y-10733984D01*
X7877325Y-10733984D02*
X7877325Y-10533984D01*
X7877325Y-10533984D02*
X7858277Y-10562555D01*
X7858277Y-10562555D02*
X7839229Y-10581603D01*
X7839229Y-10581603D02*
X7820182Y-10591127D01*
X8048753Y-10619698D02*
X8029706Y-10610174D01*
X8029706Y-10610174D02*
X8020182Y-10600650D01*
X8020182Y-10600650D02*
X8010658Y-10581603D01*
X8010658Y-10581603D02*
X8010658Y-10572079D01*
X8010658Y-10572079D02*
X8020182Y-10553031D01*
X8020182Y-10553031D02*
X8029706Y-10543508D01*
X8029706Y-10543508D02*
X8048753Y-10533984D01*
X8048753Y-10533984D02*
X8086848Y-10533984D01*
X8086848Y-10533984D02*
X8105896Y-10543508D01*
X8105896Y-10543508D02*
X8115420Y-10553031D01*
X8115420Y-10553031D02*
X8124944Y-10572079D01*
X8124944Y-10572079D02*
X8124944Y-10581603D01*
X8124944Y-10581603D02*
X8115420Y-10600650D01*
X8115420Y-10600650D02*
X8105896Y-10610174D01*
X8105896Y-10610174D02*
X8086848Y-10619698D01*
X8086848Y-10619698D02*
X8048753Y-10619698D01*
X8048753Y-10619698D02*
X8029706Y-10629222D01*
X8029706Y-10629222D02*
X8020182Y-10638746D01*
X8020182Y-10638746D02*
X8010658Y-10657793D01*
X8010658Y-10657793D02*
X8010658Y-10695889D01*
X8010658Y-10695889D02*
X8020182Y-10714936D01*
X8020182Y-10714936D02*
X8029706Y-10724460D01*
X8029706Y-10724460D02*
X8048753Y-10733984D01*
X8048753Y-10733984D02*
X8086848Y-10733984D01*
X8086848Y-10733984D02*
X8105896Y-10724460D01*
X8105896Y-10724460D02*
X8115420Y-10714936D01*
X8115420Y-10714936D02*
X8124944Y-10695889D01*
X8124944Y-10695889D02*
X8124944Y-10657793D01*
X8124944Y-10657793D02*
X8115420Y-10638746D01*
X8115420Y-10638746D02*
X8105896Y-10629222D01*
X8105896Y-10629222D02*
X8086848Y-10619698D01*
X8201134Y-10533984D02*
X8201134Y-10572079D01*
X8277325Y-10533984D02*
X8277325Y-10572079D01*
X8572563Y-10810174D02*
X8563039Y-10800650D01*
X8563039Y-10800650D02*
X8543991Y-10772079D01*
X8543991Y-10772079D02*
X8534468Y-10753031D01*
X8534468Y-10753031D02*
X8524944Y-10724460D01*
X8524944Y-10724460D02*
X8515420Y-10676841D01*
X8515420Y-10676841D02*
X8515420Y-10638746D01*
X8515420Y-10638746D02*
X8524944Y-10591127D01*
X8524944Y-10591127D02*
X8534468Y-10562555D01*
X8534468Y-10562555D02*
X8543991Y-10543508D01*
X8543991Y-10543508D02*
X8563039Y-10514936D01*
X8563039Y-10514936D02*
X8572563Y-10505412D01*
X8658277Y-10733984D02*
X8696372Y-10733984D01*
X8696372Y-10733984D02*
X8715420Y-10724460D01*
X8715420Y-10724460D02*
X8724944Y-10714936D01*
X8724944Y-10714936D02*
X8743991Y-10686365D01*
X8743991Y-10686365D02*
X8753515Y-10648270D01*
X8753515Y-10648270D02*
X8753515Y-10572079D01*
X8753515Y-10572079D02*
X8743991Y-10553031D01*
X8743991Y-10553031D02*
X8734468Y-10543508D01*
X8734468Y-10543508D02*
X8715420Y-10533984D01*
X8715420Y-10533984D02*
X8677325Y-10533984D01*
X8677325Y-10533984D02*
X8658277Y-10543508D01*
X8658277Y-10543508D02*
X8648753Y-10553031D01*
X8648753Y-10553031D02*
X8639230Y-10572079D01*
X8639230Y-10572079D02*
X8639230Y-10619698D01*
X8639230Y-10619698D02*
X8648753Y-10638746D01*
X8648753Y-10638746D02*
X8658277Y-10648270D01*
X8658277Y-10648270D02*
X8677325Y-10657793D01*
X8677325Y-10657793D02*
X8715420Y-10657793D01*
X8715420Y-10657793D02*
X8734468Y-10648270D01*
X8734468Y-10648270D02*
X8743991Y-10638746D01*
X8743991Y-10638746D02*
X8753515Y-10619698D01*
X8991611Y-10733984D02*
X8991611Y-10533984D01*
X9077325Y-10733984D02*
X9077325Y-10629222D01*
X9077325Y-10629222D02*
X9067801Y-10610174D01*
X9067801Y-10610174D02*
X9048753Y-10600650D01*
X9048753Y-10600650D02*
X9020182Y-10600650D01*
X9020182Y-10600650D02*
X9001134Y-10610174D01*
X9001134Y-10610174D02*
X8991611Y-10619698D01*
X9201134Y-10733984D02*
X9182087Y-10724460D01*
X9182087Y-10724460D02*
X9172563Y-10714936D01*
X9172563Y-10714936D02*
X9163039Y-10695889D01*
X9163039Y-10695889D02*
X9163039Y-10638746D01*
X9163039Y-10638746D02*
X9172563Y-10619698D01*
X9172563Y-10619698D02*
X9182087Y-10610174D01*
X9182087Y-10610174D02*
X9201134Y-10600650D01*
X9201134Y-10600650D02*
X9229706Y-10600650D01*
X9229706Y-10600650D02*
X9248753Y-10610174D01*
X9248753Y-10610174D02*
X9258277Y-10619698D01*
X9258277Y-10619698D02*
X9267801Y-10638746D01*
X9267801Y-10638746D02*
X9267801Y-10695889D01*
X9267801Y-10695889D02*
X9258277Y-10714936D01*
X9258277Y-10714936D02*
X9248753Y-10724460D01*
X9248753Y-10724460D02*
X9229706Y-10733984D01*
X9229706Y-10733984D02*
X9201134Y-10733984D01*
X9382087Y-10733984D02*
X9363039Y-10724460D01*
X9363039Y-10724460D02*
X9353515Y-10705412D01*
X9353515Y-10705412D02*
X9353515Y-10533984D01*
X9534468Y-10724460D02*
X9515420Y-10733984D01*
X9515420Y-10733984D02*
X9477325Y-10733984D01*
X9477325Y-10733984D02*
X9458277Y-10724460D01*
X9458277Y-10724460D02*
X9448753Y-10705412D01*
X9448753Y-10705412D02*
X9448753Y-10629222D01*
X9448753Y-10629222D02*
X9458277Y-10610174D01*
X9458277Y-10610174D02*
X9477325Y-10600650D01*
X9477325Y-10600650D02*
X9515420Y-10600650D01*
X9515420Y-10600650D02*
X9534468Y-10610174D01*
X9534468Y-10610174D02*
X9543992Y-10629222D01*
X9543992Y-10629222D02*
X9543992Y-10648270D01*
X9543992Y-10648270D02*
X9448753Y-10667317D01*
X9620182Y-10724460D02*
X9639230Y-10733984D01*
X9639230Y-10733984D02*
X9677325Y-10733984D01*
X9677325Y-10733984D02*
X9696373Y-10724460D01*
X9696373Y-10724460D02*
X9705896Y-10705412D01*
X9705896Y-10705412D02*
X9705896Y-10695889D01*
X9705896Y-10695889D02*
X9696373Y-10676841D01*
X9696373Y-10676841D02*
X9677325Y-10667317D01*
X9677325Y-10667317D02*
X9648753Y-10667317D01*
X9648753Y-10667317D02*
X9629706Y-10657793D01*
X9629706Y-10657793D02*
X9620182Y-10638746D01*
X9620182Y-10638746D02*
X9620182Y-10629222D01*
X9620182Y-10629222D02*
X9629706Y-10610174D01*
X9629706Y-10610174D02*
X9648753Y-10600650D01*
X9648753Y-10600650D02*
X9677325Y-10600650D01*
X9677325Y-10600650D02*
X9696373Y-10610174D01*
X9772563Y-10810174D02*
X9782087Y-10800650D01*
X9782087Y-10800650D02*
X9801134Y-10772079D01*
X9801134Y-10772079D02*
X9810658Y-10753031D01*
X9810658Y-10753031D02*
X9820182Y-10724460D01*
X9820182Y-10724460D02*
X9829706Y-10676841D01*
X9829706Y-10676841D02*
X9829706Y-10638746D01*
X9829706Y-10638746D02*
X9820182Y-10591127D01*
X9820182Y-10591127D02*
X9810658Y-10562555D01*
X9810658Y-10562555D02*
X9801134Y-10543508D01*
X9801134Y-10543508D02*
X9782087Y-10514936D01*
X9782087Y-10514936D02*
X9772563Y-10505412D01*
D12*
X4997500Y-10906500D02*
G75*
G02*
X4897500Y-10906500I-50000J0D01*
G01*
X4897500Y-10906500D02*
G75*
G02*
X4997500Y-10906500I50000J0D01*
G01*
D11*
X5363039Y-10997984D02*
X5248753Y-10997984D01*
X5305896Y-10997984D02*
X5305896Y-10797984D01*
X5305896Y-10797984D02*
X5286848Y-10826555D01*
X5286848Y-10826555D02*
X5267801Y-10845603D01*
X5267801Y-10845603D02*
X5248753Y-10855127D01*
X5448753Y-10978936D02*
X5458277Y-10988460D01*
X5458277Y-10988460D02*
X5448753Y-10997984D01*
X5448753Y-10997984D02*
X5439229Y-10988460D01*
X5439229Y-10988460D02*
X5448753Y-10978936D01*
X5448753Y-10978936D02*
X5448753Y-10997984D01*
X5582086Y-10797984D02*
X5601134Y-10797984D01*
X5601134Y-10797984D02*
X5620182Y-10807508D01*
X5620182Y-10807508D02*
X5629705Y-10817031D01*
X5629705Y-10817031D02*
X5639229Y-10836079D01*
X5639229Y-10836079D02*
X5648753Y-10874174D01*
X5648753Y-10874174D02*
X5648753Y-10921793D01*
X5648753Y-10921793D02*
X5639229Y-10959889D01*
X5639229Y-10959889D02*
X5629705Y-10978936D01*
X5629705Y-10978936D02*
X5620182Y-10988460D01*
X5620182Y-10988460D02*
X5601134Y-10997984D01*
X5601134Y-10997984D02*
X5582086Y-10997984D01*
X5582086Y-10997984D02*
X5563039Y-10988460D01*
X5563039Y-10988460D02*
X5553515Y-10978936D01*
X5553515Y-10978936D02*
X5543991Y-10959889D01*
X5543991Y-10959889D02*
X5534467Y-10921793D01*
X5534467Y-10921793D02*
X5534467Y-10874174D01*
X5534467Y-10874174D02*
X5543991Y-10836079D01*
X5543991Y-10836079D02*
X5553515Y-10817031D01*
X5553515Y-10817031D02*
X5563039Y-10807508D01*
X5563039Y-10807508D02*
X5582086Y-10797984D01*
X5772562Y-10797984D02*
X5791610Y-10797984D01*
X5791610Y-10797984D02*
X5810658Y-10807508D01*
X5810658Y-10807508D02*
X5820182Y-10817031D01*
X5820182Y-10817031D02*
X5829705Y-10836079D01*
X5829705Y-10836079D02*
X5839229Y-10874174D01*
X5839229Y-10874174D02*
X5839229Y-10921793D01*
X5839229Y-10921793D02*
X5829705Y-10959889D01*
X5829705Y-10959889D02*
X5820182Y-10978936D01*
X5820182Y-10978936D02*
X5810658Y-10988460D01*
X5810658Y-10988460D02*
X5791610Y-10997984D01*
X5791610Y-10997984D02*
X5772562Y-10997984D01*
X5772562Y-10997984D02*
X5753515Y-10988460D01*
X5753515Y-10988460D02*
X5743991Y-10978936D01*
X5743991Y-10978936D02*
X5734467Y-10959889D01*
X5734467Y-10959889D02*
X5724943Y-10921793D01*
X5724943Y-10921793D02*
X5724943Y-10874174D01*
X5724943Y-10874174D02*
X5734467Y-10836079D01*
X5734467Y-10836079D02*
X5743991Y-10817031D01*
X5743991Y-10817031D02*
X5753515Y-10807508D01*
X5753515Y-10807508D02*
X5772562Y-10797984D01*
X5963039Y-10797984D02*
X5982086Y-10797984D01*
X5982086Y-10797984D02*
X6001134Y-10807508D01*
X6001134Y-10807508D02*
X6010658Y-10817031D01*
X6010658Y-10817031D02*
X6020182Y-10836079D01*
X6020182Y-10836079D02*
X6029705Y-10874174D01*
X6029705Y-10874174D02*
X6029705Y-10921793D01*
X6029705Y-10921793D02*
X6020182Y-10959889D01*
X6020182Y-10959889D02*
X6010658Y-10978936D01*
X6010658Y-10978936D02*
X6001134Y-10988460D01*
X6001134Y-10988460D02*
X5982086Y-10997984D01*
X5982086Y-10997984D02*
X5963039Y-10997984D01*
X5963039Y-10997984D02*
X5943991Y-10988460D01*
X5943991Y-10988460D02*
X5934467Y-10978936D01*
X5934467Y-10978936D02*
X5924943Y-10959889D01*
X5924943Y-10959889D02*
X5915420Y-10921793D01*
X5915420Y-10921793D02*
X5915420Y-10874174D01*
X5915420Y-10874174D02*
X5924943Y-10836079D01*
X5924943Y-10836079D02*
X5934467Y-10817031D01*
X5934467Y-10817031D02*
X5943991Y-10807508D01*
X5943991Y-10807508D02*
X5963039Y-10797984D01*
X6115420Y-10997984D02*
X6115420Y-10864650D01*
X6115420Y-10883698D02*
X6124943Y-10874174D01*
X6124943Y-10874174D02*
X6143991Y-10864650D01*
X6143991Y-10864650D02*
X6172563Y-10864650D01*
X6172563Y-10864650D02*
X6191610Y-10874174D01*
X6191610Y-10874174D02*
X6201134Y-10893222D01*
X6201134Y-10893222D02*
X6201134Y-10997984D01*
X6201134Y-10893222D02*
X6210658Y-10874174D01*
X6210658Y-10874174D02*
X6229705Y-10864650D01*
X6229705Y-10864650D02*
X6258277Y-10864650D01*
X6258277Y-10864650D02*
X6277324Y-10874174D01*
X6277324Y-10874174D02*
X6286848Y-10893222D01*
X6286848Y-10893222D02*
X6286848Y-10997984D01*
X6382086Y-10997984D02*
X6382086Y-10864650D01*
X6382086Y-10883698D02*
X6391610Y-10874174D01*
X6391610Y-10874174D02*
X6410658Y-10864650D01*
X6410658Y-10864650D02*
X6439229Y-10864650D01*
X6439229Y-10864650D02*
X6458277Y-10874174D01*
X6458277Y-10874174D02*
X6467801Y-10893222D01*
X6467801Y-10893222D02*
X6467801Y-10997984D01*
X6467801Y-10893222D02*
X6477324Y-10874174D01*
X6477324Y-10874174D02*
X6496372Y-10864650D01*
X6496372Y-10864650D02*
X6524943Y-10864650D01*
X6524943Y-10864650D02*
X6543991Y-10874174D01*
X6543991Y-10874174D02*
X6553515Y-10893222D01*
X6553515Y-10893222D02*
X6553515Y-10997984D01*
X6943991Y-10788460D02*
X6772563Y-11045603D01*
X7201134Y-10797984D02*
X7220182Y-10797984D01*
X7220182Y-10797984D02*
X7239229Y-10807508D01*
X7239229Y-10807508D02*
X7248753Y-10817031D01*
X7248753Y-10817031D02*
X7258277Y-10836079D01*
X7258277Y-10836079D02*
X7267801Y-10874174D01*
X7267801Y-10874174D02*
X7267801Y-10921793D01*
X7267801Y-10921793D02*
X7258277Y-10959889D01*
X7258277Y-10959889D02*
X7248753Y-10978936D01*
X7248753Y-10978936D02*
X7239229Y-10988460D01*
X7239229Y-10988460D02*
X7220182Y-10997984D01*
X7220182Y-10997984D02*
X7201134Y-10997984D01*
X7201134Y-10997984D02*
X7182086Y-10988460D01*
X7182086Y-10988460D02*
X7172563Y-10978936D01*
X7172563Y-10978936D02*
X7163039Y-10959889D01*
X7163039Y-10959889D02*
X7153515Y-10921793D01*
X7153515Y-10921793D02*
X7153515Y-10874174D01*
X7153515Y-10874174D02*
X7163039Y-10836079D01*
X7163039Y-10836079D02*
X7172563Y-10817031D01*
X7172563Y-10817031D02*
X7182086Y-10807508D01*
X7182086Y-10807508D02*
X7201134Y-10797984D01*
X7353515Y-10978936D02*
X7363039Y-10988460D01*
X7363039Y-10988460D02*
X7353515Y-10997984D01*
X7353515Y-10997984D02*
X7343991Y-10988460D01*
X7343991Y-10988460D02*
X7353515Y-10978936D01*
X7353515Y-10978936D02*
X7353515Y-10997984D01*
X7486848Y-10797984D02*
X7505896Y-10797984D01*
X7505896Y-10797984D02*
X7524944Y-10807508D01*
X7524944Y-10807508D02*
X7534467Y-10817031D01*
X7534467Y-10817031D02*
X7543991Y-10836079D01*
X7543991Y-10836079D02*
X7553515Y-10874174D01*
X7553515Y-10874174D02*
X7553515Y-10921793D01*
X7553515Y-10921793D02*
X7543991Y-10959889D01*
X7543991Y-10959889D02*
X7534467Y-10978936D01*
X7534467Y-10978936D02*
X7524944Y-10988460D01*
X7524944Y-10988460D02*
X7505896Y-10997984D01*
X7505896Y-10997984D02*
X7486848Y-10997984D01*
X7486848Y-10997984D02*
X7467801Y-10988460D01*
X7467801Y-10988460D02*
X7458277Y-10978936D01*
X7458277Y-10978936D02*
X7448753Y-10959889D01*
X7448753Y-10959889D02*
X7439229Y-10921793D01*
X7439229Y-10921793D02*
X7439229Y-10874174D01*
X7439229Y-10874174D02*
X7448753Y-10836079D01*
X7448753Y-10836079D02*
X7458277Y-10817031D01*
X7458277Y-10817031D02*
X7467801Y-10807508D01*
X7467801Y-10807508D02*
X7486848Y-10797984D01*
X7620182Y-10797984D02*
X7743991Y-10797984D01*
X7743991Y-10797984D02*
X7677325Y-10874174D01*
X7677325Y-10874174D02*
X7705896Y-10874174D01*
X7705896Y-10874174D02*
X7724944Y-10883698D01*
X7724944Y-10883698D02*
X7734467Y-10893222D01*
X7734467Y-10893222D02*
X7743991Y-10912270D01*
X7743991Y-10912270D02*
X7743991Y-10959889D01*
X7743991Y-10959889D02*
X7734467Y-10978936D01*
X7734467Y-10978936D02*
X7724944Y-10988460D01*
X7724944Y-10988460D02*
X7705896Y-10997984D01*
X7705896Y-10997984D02*
X7648753Y-10997984D01*
X7648753Y-10997984D02*
X7629706Y-10988460D01*
X7629706Y-10988460D02*
X7620182Y-10978936D01*
X7839229Y-10997984D02*
X7877325Y-10997984D01*
X7877325Y-10997984D02*
X7896372Y-10988460D01*
X7896372Y-10988460D02*
X7905896Y-10978936D01*
X7905896Y-10978936D02*
X7924944Y-10950365D01*
X7924944Y-10950365D02*
X7934467Y-10912270D01*
X7934467Y-10912270D02*
X7934467Y-10836079D01*
X7934467Y-10836079D02*
X7924944Y-10817031D01*
X7924944Y-10817031D02*
X7915420Y-10807508D01*
X7915420Y-10807508D02*
X7896372Y-10797984D01*
X7896372Y-10797984D02*
X7858277Y-10797984D01*
X7858277Y-10797984D02*
X7839229Y-10807508D01*
X7839229Y-10807508D02*
X7829706Y-10817031D01*
X7829706Y-10817031D02*
X7820182Y-10836079D01*
X7820182Y-10836079D02*
X7820182Y-10883698D01*
X7820182Y-10883698D02*
X7829706Y-10902746D01*
X7829706Y-10902746D02*
X7839229Y-10912270D01*
X7839229Y-10912270D02*
X7858277Y-10921793D01*
X7858277Y-10921793D02*
X7896372Y-10921793D01*
X7896372Y-10921793D02*
X7915420Y-10912270D01*
X7915420Y-10912270D02*
X7924944Y-10902746D01*
X7924944Y-10902746D02*
X7934467Y-10883698D01*
X8105896Y-10864650D02*
X8105896Y-10997984D01*
X8058277Y-10788460D02*
X8010658Y-10931317D01*
X8010658Y-10931317D02*
X8134467Y-10931317D01*
X8201134Y-10797984D02*
X8201134Y-10836079D01*
X8277325Y-10797984D02*
X8277325Y-10836079D01*
X8572563Y-11074174D02*
X8563039Y-11064650D01*
X8563039Y-11064650D02*
X8543991Y-11036079D01*
X8543991Y-11036079D02*
X8534468Y-11017031D01*
X8534468Y-11017031D02*
X8524944Y-10988460D01*
X8524944Y-10988460D02*
X8515420Y-10940841D01*
X8515420Y-10940841D02*
X8515420Y-10902746D01*
X8515420Y-10902746D02*
X8524944Y-10855127D01*
X8524944Y-10855127D02*
X8534468Y-10826555D01*
X8534468Y-10826555D02*
X8543991Y-10807508D01*
X8543991Y-10807508D02*
X8563039Y-10778936D01*
X8563039Y-10778936D02*
X8572563Y-10769412D01*
X8639230Y-10817031D02*
X8648753Y-10807508D01*
X8648753Y-10807508D02*
X8667801Y-10797984D01*
X8667801Y-10797984D02*
X8715420Y-10797984D01*
X8715420Y-10797984D02*
X8734468Y-10807508D01*
X8734468Y-10807508D02*
X8743991Y-10817031D01*
X8743991Y-10817031D02*
X8753515Y-10836079D01*
X8753515Y-10836079D02*
X8753515Y-10855127D01*
X8753515Y-10855127D02*
X8743991Y-10883698D01*
X8743991Y-10883698D02*
X8629706Y-10997984D01*
X8629706Y-10997984D02*
X8753515Y-10997984D01*
X8877325Y-10797984D02*
X8896372Y-10797984D01*
X8896372Y-10797984D02*
X8915420Y-10807508D01*
X8915420Y-10807508D02*
X8924944Y-10817031D01*
X8924944Y-10817031D02*
X8934468Y-10836079D01*
X8934468Y-10836079D02*
X8943991Y-10874174D01*
X8943991Y-10874174D02*
X8943991Y-10921793D01*
X8943991Y-10921793D02*
X8934468Y-10959889D01*
X8934468Y-10959889D02*
X8924944Y-10978936D01*
X8924944Y-10978936D02*
X8915420Y-10988460D01*
X8915420Y-10988460D02*
X8896372Y-10997984D01*
X8896372Y-10997984D02*
X8877325Y-10997984D01*
X8877325Y-10997984D02*
X8858277Y-10988460D01*
X8858277Y-10988460D02*
X8848753Y-10978936D01*
X8848753Y-10978936D02*
X8839230Y-10959889D01*
X8839230Y-10959889D02*
X8829706Y-10921793D01*
X8829706Y-10921793D02*
X8829706Y-10874174D01*
X8829706Y-10874174D02*
X8839230Y-10836079D01*
X8839230Y-10836079D02*
X8848753Y-10817031D01*
X8848753Y-10817031D02*
X8858277Y-10807508D01*
X8858277Y-10807508D02*
X8877325Y-10797984D01*
X9182087Y-10997984D02*
X9182087Y-10797984D01*
X9267801Y-10997984D02*
X9267801Y-10893222D01*
X9267801Y-10893222D02*
X9258277Y-10874174D01*
X9258277Y-10874174D02*
X9239230Y-10864650D01*
X9239230Y-10864650D02*
X9210658Y-10864650D01*
X9210658Y-10864650D02*
X9191611Y-10874174D01*
X9191611Y-10874174D02*
X9182087Y-10883698D01*
X9391611Y-10997984D02*
X9372563Y-10988460D01*
X9372563Y-10988460D02*
X9363039Y-10978936D01*
X9363039Y-10978936D02*
X9353515Y-10959889D01*
X9353515Y-10959889D02*
X9353515Y-10902746D01*
X9353515Y-10902746D02*
X9363039Y-10883698D01*
X9363039Y-10883698D02*
X9372563Y-10874174D01*
X9372563Y-10874174D02*
X9391611Y-10864650D01*
X9391611Y-10864650D02*
X9420182Y-10864650D01*
X9420182Y-10864650D02*
X9439230Y-10874174D01*
X9439230Y-10874174D02*
X9448753Y-10883698D01*
X9448753Y-10883698D02*
X9458277Y-10902746D01*
X9458277Y-10902746D02*
X9458277Y-10959889D01*
X9458277Y-10959889D02*
X9448753Y-10978936D01*
X9448753Y-10978936D02*
X9439230Y-10988460D01*
X9439230Y-10988460D02*
X9420182Y-10997984D01*
X9420182Y-10997984D02*
X9391611Y-10997984D01*
X9572563Y-10997984D02*
X9553515Y-10988460D01*
X9553515Y-10988460D02*
X9543992Y-10969412D01*
X9543992Y-10969412D02*
X9543992Y-10797984D01*
X9724944Y-10988460D02*
X9705896Y-10997984D01*
X9705896Y-10997984D02*
X9667801Y-10997984D01*
X9667801Y-10997984D02*
X9648753Y-10988460D01*
X9648753Y-10988460D02*
X9639230Y-10969412D01*
X9639230Y-10969412D02*
X9639230Y-10893222D01*
X9639230Y-10893222D02*
X9648753Y-10874174D01*
X9648753Y-10874174D02*
X9667801Y-10864650D01*
X9667801Y-10864650D02*
X9705896Y-10864650D01*
X9705896Y-10864650D02*
X9724944Y-10874174D01*
X9724944Y-10874174D02*
X9734468Y-10893222D01*
X9734468Y-10893222D02*
X9734468Y-10912270D01*
X9734468Y-10912270D02*
X9639230Y-10931317D01*
X9810658Y-10988460D02*
X9829706Y-10997984D01*
X9829706Y-10997984D02*
X9867801Y-10997984D01*
X9867801Y-10997984D02*
X9886849Y-10988460D01*
X9886849Y-10988460D02*
X9896373Y-10969412D01*
X9896373Y-10969412D02*
X9896373Y-10959889D01*
X9896373Y-10959889D02*
X9886849Y-10940841D01*
X9886849Y-10940841D02*
X9867801Y-10931317D01*
X9867801Y-10931317D02*
X9839230Y-10931317D01*
X9839230Y-10931317D02*
X9820182Y-10921793D01*
X9820182Y-10921793D02*
X9810658Y-10902746D01*
X9810658Y-10902746D02*
X9810658Y-10893222D01*
X9810658Y-10893222D02*
X9820182Y-10874174D01*
X9820182Y-10874174D02*
X9839230Y-10864650D01*
X9839230Y-10864650D02*
X9867801Y-10864650D01*
X9867801Y-10864650D02*
X9886849Y-10874174D01*
X9963039Y-11074174D02*
X9972563Y-11064650D01*
X9972563Y-11064650D02*
X9991611Y-11036079D01*
X9991611Y-11036079D02*
X10001134Y-11017031D01*
X10001134Y-11017031D02*
X10010658Y-10988460D01*
X10010658Y-10988460D02*
X10020182Y-10940841D01*
X10020182Y-10940841D02*
X10020182Y-10902746D01*
X10020182Y-10902746D02*
X10010658Y-10855127D01*
X10010658Y-10855127D02*
X10001134Y-10826555D01*
X10001134Y-10826555D02*
X9991611Y-10807508D01*
X9991611Y-10807508D02*
X9972563Y-10778936D01*
X9972563Y-10778936D02*
X9963039Y-10769412D01*
D13*
X4942500Y-11115500D02*
X4942500Y-11225500D01*
X4887500Y-11170500D02*
X4997500Y-11170500D01*
D11*
X5363039Y-11261984D02*
X5248753Y-11261984D01*
X5305896Y-11261984D02*
X5305896Y-11061984D01*
X5305896Y-11061984D02*
X5286848Y-11090555D01*
X5286848Y-11090555D02*
X5267801Y-11109603D01*
X5267801Y-11109603D02*
X5248753Y-11119127D01*
X5448753Y-11242936D02*
X5458277Y-11252460D01*
X5458277Y-11252460D02*
X5448753Y-11261984D01*
X5448753Y-11261984D02*
X5439229Y-11252460D01*
X5439229Y-11252460D02*
X5448753Y-11242936D01*
X5448753Y-11242936D02*
X5448753Y-11261984D01*
X5648753Y-11261984D02*
X5534467Y-11261984D01*
X5591610Y-11261984D02*
X5591610Y-11061984D01*
X5591610Y-11061984D02*
X5572563Y-11090555D01*
X5572563Y-11090555D02*
X5553515Y-11109603D01*
X5553515Y-11109603D02*
X5534467Y-11119127D01*
X5772562Y-11061984D02*
X5791610Y-11061984D01*
X5791610Y-11061984D02*
X5810658Y-11071508D01*
X5810658Y-11071508D02*
X5820182Y-11081031D01*
X5820182Y-11081031D02*
X5829705Y-11100079D01*
X5829705Y-11100079D02*
X5839229Y-11138174D01*
X5839229Y-11138174D02*
X5839229Y-11185793D01*
X5839229Y-11185793D02*
X5829705Y-11223888D01*
X5829705Y-11223888D02*
X5820182Y-11242936D01*
X5820182Y-11242936D02*
X5810658Y-11252460D01*
X5810658Y-11252460D02*
X5791610Y-11261984D01*
X5791610Y-11261984D02*
X5772562Y-11261984D01*
X5772562Y-11261984D02*
X5753515Y-11252460D01*
X5753515Y-11252460D02*
X5743991Y-11242936D01*
X5743991Y-11242936D02*
X5734467Y-11223888D01*
X5734467Y-11223888D02*
X5724943Y-11185793D01*
X5724943Y-11185793D02*
X5724943Y-11138174D01*
X5724943Y-11138174D02*
X5734467Y-11100079D01*
X5734467Y-11100079D02*
X5743991Y-11081031D01*
X5743991Y-11081031D02*
X5753515Y-11071508D01*
X5753515Y-11071508D02*
X5772562Y-11061984D01*
X5963039Y-11061984D02*
X5982086Y-11061984D01*
X5982086Y-11061984D02*
X6001134Y-11071508D01*
X6001134Y-11071508D02*
X6010658Y-11081031D01*
X6010658Y-11081031D02*
X6020182Y-11100079D01*
X6020182Y-11100079D02*
X6029705Y-11138174D01*
X6029705Y-11138174D02*
X6029705Y-11185793D01*
X6029705Y-11185793D02*
X6020182Y-11223888D01*
X6020182Y-11223888D02*
X6010658Y-11242936D01*
X6010658Y-11242936D02*
X6001134Y-11252460D01*
X6001134Y-11252460D02*
X5982086Y-11261984D01*
X5982086Y-11261984D02*
X5963039Y-11261984D01*
X5963039Y-11261984D02*
X5943991Y-11252460D01*
X5943991Y-11252460D02*
X5934467Y-11242936D01*
X5934467Y-11242936D02*
X5924943Y-11223888D01*
X5924943Y-11223888D02*
X5915420Y-11185793D01*
X5915420Y-11185793D02*
X5915420Y-11138174D01*
X5915420Y-11138174D02*
X5924943Y-11100079D01*
X5924943Y-11100079D02*
X5934467Y-11081031D01*
X5934467Y-11081031D02*
X5943991Y-11071508D01*
X5943991Y-11071508D02*
X5963039Y-11061984D01*
X6115420Y-11261984D02*
X6115420Y-11128650D01*
X6115420Y-11147698D02*
X6124943Y-11138174D01*
X6124943Y-11138174D02*
X6143991Y-11128650D01*
X6143991Y-11128650D02*
X6172563Y-11128650D01*
X6172563Y-11128650D02*
X6191610Y-11138174D01*
X6191610Y-11138174D02*
X6201134Y-11157222D01*
X6201134Y-11157222D02*
X6201134Y-11261984D01*
X6201134Y-11157222D02*
X6210658Y-11138174D01*
X6210658Y-11138174D02*
X6229705Y-11128650D01*
X6229705Y-11128650D02*
X6258277Y-11128650D01*
X6258277Y-11128650D02*
X6277324Y-11138174D01*
X6277324Y-11138174D02*
X6286848Y-11157222D01*
X6286848Y-11157222D02*
X6286848Y-11261984D01*
X6382086Y-11261984D02*
X6382086Y-11128650D01*
X6382086Y-11147698D02*
X6391610Y-11138174D01*
X6391610Y-11138174D02*
X6410658Y-11128650D01*
X6410658Y-11128650D02*
X6439229Y-11128650D01*
X6439229Y-11128650D02*
X6458277Y-11138174D01*
X6458277Y-11138174D02*
X6467801Y-11157222D01*
X6467801Y-11157222D02*
X6467801Y-11261984D01*
X6467801Y-11157222D02*
X6477324Y-11138174D01*
X6477324Y-11138174D02*
X6496372Y-11128650D01*
X6496372Y-11128650D02*
X6524943Y-11128650D01*
X6524943Y-11128650D02*
X6543991Y-11138174D01*
X6543991Y-11138174D02*
X6553515Y-11157222D01*
X6553515Y-11157222D02*
X6553515Y-11261984D01*
X6943991Y-11052460D02*
X6772563Y-11309603D01*
X7201134Y-11061984D02*
X7220182Y-11061984D01*
X7220182Y-11061984D02*
X7239229Y-11071508D01*
X7239229Y-11071508D02*
X7248753Y-11081031D01*
X7248753Y-11081031D02*
X7258277Y-11100079D01*
X7258277Y-11100079D02*
X7267801Y-11138174D01*
X7267801Y-11138174D02*
X7267801Y-11185793D01*
X7267801Y-11185793D02*
X7258277Y-11223888D01*
X7258277Y-11223888D02*
X7248753Y-11242936D01*
X7248753Y-11242936D02*
X7239229Y-11252460D01*
X7239229Y-11252460D02*
X7220182Y-11261984D01*
X7220182Y-11261984D02*
X7201134Y-11261984D01*
X7201134Y-11261984D02*
X7182086Y-11252460D01*
X7182086Y-11252460D02*
X7172563Y-11242936D01*
X7172563Y-11242936D02*
X7163039Y-11223888D01*
X7163039Y-11223888D02*
X7153515Y-11185793D01*
X7153515Y-11185793D02*
X7153515Y-11138174D01*
X7153515Y-11138174D02*
X7163039Y-11100079D01*
X7163039Y-11100079D02*
X7172563Y-11081031D01*
X7172563Y-11081031D02*
X7182086Y-11071508D01*
X7182086Y-11071508D02*
X7201134Y-11061984D01*
X7353515Y-11242936D02*
X7363039Y-11252460D01*
X7363039Y-11252460D02*
X7353515Y-11261984D01*
X7353515Y-11261984D02*
X7343991Y-11252460D01*
X7343991Y-11252460D02*
X7353515Y-11242936D01*
X7353515Y-11242936D02*
X7353515Y-11261984D01*
X7486848Y-11061984D02*
X7505896Y-11061984D01*
X7505896Y-11061984D02*
X7524944Y-11071508D01*
X7524944Y-11071508D02*
X7534467Y-11081031D01*
X7534467Y-11081031D02*
X7543991Y-11100079D01*
X7543991Y-11100079D02*
X7553515Y-11138174D01*
X7553515Y-11138174D02*
X7553515Y-11185793D01*
X7553515Y-11185793D02*
X7543991Y-11223888D01*
X7543991Y-11223888D02*
X7534467Y-11242936D01*
X7534467Y-11242936D02*
X7524944Y-11252460D01*
X7524944Y-11252460D02*
X7505896Y-11261984D01*
X7505896Y-11261984D02*
X7486848Y-11261984D01*
X7486848Y-11261984D02*
X7467801Y-11252460D01*
X7467801Y-11252460D02*
X7458277Y-11242936D01*
X7458277Y-11242936D02*
X7448753Y-11223888D01*
X7448753Y-11223888D02*
X7439229Y-11185793D01*
X7439229Y-11185793D02*
X7439229Y-11138174D01*
X7439229Y-11138174D02*
X7448753Y-11100079D01*
X7448753Y-11100079D02*
X7458277Y-11081031D01*
X7458277Y-11081031D02*
X7467801Y-11071508D01*
X7467801Y-11071508D02*
X7486848Y-11061984D01*
X7724944Y-11128650D02*
X7724944Y-11261984D01*
X7677325Y-11052460D02*
X7629706Y-11195317D01*
X7629706Y-11195317D02*
X7753515Y-11195317D01*
X7810658Y-11061984D02*
X7934467Y-11061984D01*
X7934467Y-11061984D02*
X7867801Y-11138174D01*
X7867801Y-11138174D02*
X7896372Y-11138174D01*
X7896372Y-11138174D02*
X7915420Y-11147698D01*
X7915420Y-11147698D02*
X7924944Y-11157222D01*
X7924944Y-11157222D02*
X7934467Y-11176270D01*
X7934467Y-11176270D02*
X7934467Y-11223888D01*
X7934467Y-11223888D02*
X7924944Y-11242936D01*
X7924944Y-11242936D02*
X7915420Y-11252460D01*
X7915420Y-11252460D02*
X7896372Y-11261984D01*
X7896372Y-11261984D02*
X7839229Y-11261984D01*
X7839229Y-11261984D02*
X7820182Y-11252460D01*
X7820182Y-11252460D02*
X7810658Y-11242936D01*
X8001134Y-11061984D02*
X8124944Y-11061984D01*
X8124944Y-11061984D02*
X8058277Y-11138174D01*
X8058277Y-11138174D02*
X8086848Y-11138174D01*
X8086848Y-11138174D02*
X8105896Y-11147698D01*
X8105896Y-11147698D02*
X8115420Y-11157222D01*
X8115420Y-11157222D02*
X8124944Y-11176270D01*
X8124944Y-11176270D02*
X8124944Y-11223888D01*
X8124944Y-11223888D02*
X8115420Y-11242936D01*
X8115420Y-11242936D02*
X8105896Y-11252460D01*
X8105896Y-11252460D02*
X8086848Y-11261984D01*
X8086848Y-11261984D02*
X8029706Y-11261984D01*
X8029706Y-11261984D02*
X8010658Y-11252460D01*
X8010658Y-11252460D02*
X8001134Y-11242936D01*
X8201134Y-11061984D02*
X8201134Y-11100079D01*
X8277325Y-11061984D02*
X8277325Y-11100079D01*
X8572563Y-11338174D02*
X8563039Y-11328650D01*
X8563039Y-11328650D02*
X8543991Y-11300079D01*
X8543991Y-11300079D02*
X8534468Y-11281031D01*
X8534468Y-11281031D02*
X8524944Y-11252460D01*
X8524944Y-11252460D02*
X8515420Y-11204841D01*
X8515420Y-11204841D02*
X8515420Y-11166746D01*
X8515420Y-11166746D02*
X8524944Y-11119127D01*
X8524944Y-11119127D02*
X8534468Y-11090555D01*
X8534468Y-11090555D02*
X8543991Y-11071508D01*
X8543991Y-11071508D02*
X8563039Y-11042936D01*
X8563039Y-11042936D02*
X8572563Y-11033412D01*
X8734468Y-11128650D02*
X8734468Y-11261984D01*
X8686849Y-11052460D02*
X8639230Y-11195317D01*
X8639230Y-11195317D02*
X8763039Y-11195317D01*
X8867801Y-11147698D02*
X8848753Y-11138174D01*
X8848753Y-11138174D02*
X8839230Y-11128650D01*
X8839230Y-11128650D02*
X8829706Y-11109603D01*
X8829706Y-11109603D02*
X8829706Y-11100079D01*
X8829706Y-11100079D02*
X8839230Y-11081031D01*
X8839230Y-11081031D02*
X8848753Y-11071508D01*
X8848753Y-11071508D02*
X8867801Y-11061984D01*
X8867801Y-11061984D02*
X8905896Y-11061984D01*
X8905896Y-11061984D02*
X8924944Y-11071508D01*
X8924944Y-11071508D02*
X8934468Y-11081031D01*
X8934468Y-11081031D02*
X8943991Y-11100079D01*
X8943991Y-11100079D02*
X8943991Y-11109603D01*
X8943991Y-11109603D02*
X8934468Y-11128650D01*
X8934468Y-11128650D02*
X8924944Y-11138174D01*
X8924944Y-11138174D02*
X8905896Y-11147698D01*
X8905896Y-11147698D02*
X8867801Y-11147698D01*
X8867801Y-11147698D02*
X8848753Y-11157222D01*
X8848753Y-11157222D02*
X8839230Y-11166746D01*
X8839230Y-11166746D02*
X8829706Y-11185793D01*
X8829706Y-11185793D02*
X8829706Y-11223888D01*
X8829706Y-11223888D02*
X8839230Y-11242936D01*
X8839230Y-11242936D02*
X8848753Y-11252460D01*
X8848753Y-11252460D02*
X8867801Y-11261984D01*
X8867801Y-11261984D02*
X8905896Y-11261984D01*
X8905896Y-11261984D02*
X8924944Y-11252460D01*
X8924944Y-11252460D02*
X8934468Y-11242936D01*
X8934468Y-11242936D02*
X8943991Y-11223888D01*
X8943991Y-11223888D02*
X8943991Y-11185793D01*
X8943991Y-11185793D02*
X8934468Y-11166746D01*
X8934468Y-11166746D02*
X8924944Y-11157222D01*
X8924944Y-11157222D02*
X8905896Y-11147698D01*
X9182087Y-11261984D02*
X9182087Y-11061984D01*
X9267801Y-11261984D02*
X9267801Y-11157222D01*
X9267801Y-11157222D02*
X9258277Y-11138174D01*
X9258277Y-11138174D02*
X9239230Y-11128650D01*
X9239230Y-11128650D02*
X9210658Y-11128650D01*
X9210658Y-11128650D02*
X9191611Y-11138174D01*
X9191611Y-11138174D02*
X9182087Y-11147698D01*
X9391611Y-11261984D02*
X9372563Y-11252460D01*
X9372563Y-11252460D02*
X9363039Y-11242936D01*
X9363039Y-11242936D02*
X9353515Y-11223888D01*
X9353515Y-11223888D02*
X9353515Y-11166746D01*
X9353515Y-11166746D02*
X9363039Y-11147698D01*
X9363039Y-11147698D02*
X9372563Y-11138174D01*
X9372563Y-11138174D02*
X9391611Y-11128650D01*
X9391611Y-11128650D02*
X9420182Y-11128650D01*
X9420182Y-11128650D02*
X9439230Y-11138174D01*
X9439230Y-11138174D02*
X9448753Y-11147698D01*
X9448753Y-11147698D02*
X9458277Y-11166746D01*
X9458277Y-11166746D02*
X9458277Y-11223888D01*
X9458277Y-11223888D02*
X9448753Y-11242936D01*
X9448753Y-11242936D02*
X9439230Y-11252460D01*
X9439230Y-11252460D02*
X9420182Y-11261984D01*
X9420182Y-11261984D02*
X9391611Y-11261984D01*
X9572563Y-11261984D02*
X9553515Y-11252460D01*
X9553515Y-11252460D02*
X9543992Y-11233412D01*
X9543992Y-11233412D02*
X9543992Y-11061984D01*
X9724944Y-11252460D02*
X9705896Y-11261984D01*
X9705896Y-11261984D02*
X9667801Y-11261984D01*
X9667801Y-11261984D02*
X9648753Y-11252460D01*
X9648753Y-11252460D02*
X9639230Y-11233412D01*
X9639230Y-11233412D02*
X9639230Y-11157222D01*
X9639230Y-11157222D02*
X9648753Y-11138174D01*
X9648753Y-11138174D02*
X9667801Y-11128650D01*
X9667801Y-11128650D02*
X9705896Y-11128650D01*
X9705896Y-11128650D02*
X9724944Y-11138174D01*
X9724944Y-11138174D02*
X9734468Y-11157222D01*
X9734468Y-11157222D02*
X9734468Y-11176270D01*
X9734468Y-11176270D02*
X9639230Y-11195317D01*
X9810658Y-11252460D02*
X9829706Y-11261984D01*
X9829706Y-11261984D02*
X9867801Y-11261984D01*
X9867801Y-11261984D02*
X9886849Y-11252460D01*
X9886849Y-11252460D02*
X9896373Y-11233412D01*
X9896373Y-11233412D02*
X9896373Y-11223888D01*
X9896373Y-11223888D02*
X9886849Y-11204841D01*
X9886849Y-11204841D02*
X9867801Y-11195317D01*
X9867801Y-11195317D02*
X9839230Y-11195317D01*
X9839230Y-11195317D02*
X9820182Y-11185793D01*
X9820182Y-11185793D02*
X9810658Y-11166746D01*
X9810658Y-11166746D02*
X9810658Y-11157222D01*
X9810658Y-11157222D02*
X9820182Y-11138174D01*
X9820182Y-11138174D02*
X9839230Y-11128650D01*
X9839230Y-11128650D02*
X9867801Y-11128650D01*
X9867801Y-11128650D02*
X9886849Y-11138174D01*
X9963039Y-11338174D02*
X9972563Y-11328650D01*
X9972563Y-11328650D02*
X9991611Y-11300079D01*
X9991611Y-11300079D02*
X10001134Y-11281031D01*
X10001134Y-11281031D02*
X10010658Y-11252460D01*
X10010658Y-11252460D02*
X10020182Y-11204841D01*
X10020182Y-11204841D02*
X10020182Y-11166746D01*
X10020182Y-11166746D02*
X10010658Y-11119127D01*
X10010658Y-11119127D02*
X10001134Y-11090555D01*
X10001134Y-11090555D02*
X9991611Y-11071508D01*
X9991611Y-11071508D02*
X9972563Y-11042936D01*
X9972563Y-11042936D02*
X9963039Y-11033412D01*
M02*
